<svg width="399" height="64" viewBox="0 0 399 64" fill="none" xmlns="http://www.w3.org/2000/svg">
<path d="M102.647 0H8.27801C3.70619 0 0 3.72539 0 8.3209V54.9179C0 59.5134 3.70619 63.2388 8.27801 63.2388H102.647C107.219 63.2388 110.925 59.5134 110.925 54.9179V8.3209C110.925 3.72539 107.219 0 102.647 0Z" fill="#EFEFEF"/>
<path d="M50.3677 44.5487H43.7373L47.8844 18.7732H54.5144L50.3677 44.5487Z" fill="#1A1F71"/>
<path d="M74.404 19.4033C73.0963 18.8817 71.022 18.3059 68.4571 18.3059C61.9094 18.3059 57.2985 21.8157 57.2702 26.8333C57.2159 30.5355 60.5715 32.5917 63.0812 33.826C65.6464 35.0875 66.5184 35.9108 66.5184 37.0351C66.4924 38.7618 64.4456 39.5578 62.5367 39.5578C59.8896 39.5578 58.4712 39.1474 56.3156 38.1867L55.4426 37.775L54.5146 43.561C56.0698 44.2731 58.9349 44.9051 61.9094 44.9328C68.8666 44.9328 73.3958 41.4774 73.4494 36.1301C73.4759 33.196 71.7039 30.9477 67.884 29.1104C65.565 27.931 64.1446 27.1359 64.1446 25.9292C64.1719 24.8322 65.3459 23.7085 67.9636 23.7085C70.1192 23.6536 71.7029 24.1743 72.9026 24.6955L73.5024 24.9691L74.404 19.4033Z" fill="#1A1F71"/>
<path d="M83.2163 35.4173C83.7623 33.9365 85.8634 28.2056 85.8634 28.2056C85.8359 28.2605 86.4084 26.6973 86.7358 25.7378L87.1992 27.9588C87.1992 27.9588 88.4548 34.1286 88.7274 35.4173C87.6912 35.4173 84.5259 35.4173 83.2163 35.4173ZM91.4006 18.7732H86.272C84.6904 18.7732 83.489 19.2388 82.8065 20.9117L72.958 44.5483H79.915C79.915 44.5483 81.0604 41.3669 81.3065 40.6818C82.0698 40.6818 88.8375 40.6818 89.8195 40.6818C90.0099 41.5868 90.6105 44.5483 90.6105 44.5483H96.7497L91.4006 18.7732Z" fill="#1A1F71"/>
<path fill-rule="evenodd" clip-rule="evenodd" d="M15.0095 18.7732H25.6772C27.123 18.8274 28.2964 19.2936 28.6781 20.9398L30.9962 32.7801C30.9965 32.7818 30.997 32.7833 30.9975 32.7849L31.7071 36.3496L38.2003 18.7732H45.2115L34.7896 44.5214H27.7782L21.8685 22.1248C19.8294 20.9265 17.5023 19.9627 14.9004 19.2939L15.0095 18.7732Z" fill="#1A1F71"/>
<path d="M246.684 0H152.315C147.743 0 144.037 3.72539 144.037 8.3209V54.9179C144.037 59.5134 147.743 63.2388 152.315 63.2388H246.684C251.256 63.2388 254.962 59.5134 254.962 54.9179V8.3209C254.962 3.72539 251.256 0 246.684 0Z" fill="#EFEFEF"/>
<path d="M178.999 52.8042V49.8891C179.019 49.6439 178.977 49.398 178.878 49.1676C178.779 48.9373 178.625 48.7278 178.424 48.5531C178.226 48.3783 177.984 48.2425 177.719 48.1545C177.454 48.0666 177.169 48.0285 176.886 48.043C176.515 48.0219 176.145 48.0874 175.812 48.2327C175.481 48.378 175.199 48.5977 174.999 48.8689C174.817 48.6058 174.555 48.3903 174.242 48.2449C173.931 48.0996 173.578 48.0297 173.224 48.043C172.914 48.0294 172.607 48.0859 172.332 48.2069C172.055 48.3281 171.822 48.5093 171.651 48.7328V48.1595H170.482V52.8042H171.663V50.2487C171.636 50.0898 171.653 49.9282 171.709 49.7752C171.764 49.6223 171.858 49.4818 171.984 49.364C172.11 49.246 172.264 49.1537 172.434 49.0933C172.607 49.0328 172.792 49.0061 172.977 49.0145C173.752 49.0145 174.145 49.4519 174.145 50.2389V52.8237H175.325V50.2487C175.3 50.0899 175.317 49.9287 175.373 49.7761C175.429 49.6236 175.524 49.4835 175.648 49.3659C175.774 49.2482 175.928 49.1557 176.098 49.0949C176.27 49.0343 176.454 49.0069 176.64 49.0145C177.438 49.0145 177.818 49.4519 177.818 50.2389V52.8237L178.999 52.8042ZM196.451 48.1595H194.53V46.7506H193.35V48.1595H192.283V49.0826H193.373V51.2204C193.373 52.299 193.856 52.9402 195.237 52.9402C195.754 52.9417 196.26 52.8172 196.699 52.5807L196.361 51.7158C196.048 51.8776 195.692 51.9678 195.328 51.9783C194.765 51.9783 194.553 51.6674 194.553 51.2009V49.0826H196.462L196.451 48.1595ZM206.416 48.043C206.131 48.0357 205.849 48.0951 205.599 48.2147C205.351 48.3344 205.144 48.5101 205 48.7231V48.1595H203.843V52.8042H205.012V50.2001C205.012 49.4324 205.394 49.0049 206.136 49.0049C206.386 49.0019 206.632 49.0415 206.866 49.1216L207.225 48.1498C206.959 48.0673 206.677 48.0245 206.394 48.0235L206.416 48.043ZM191.351 48.5288C190.689 48.1886 189.929 48.02 189.159 48.043C187.8 48.043 186.913 48.6065 186.913 49.5296C186.913 50.2875 187.565 50.7539 188.767 50.8997L189.328 50.9678C189.969 51.0455 190.272 51.1913 190.272 51.4536C190.272 51.813 189.845 52.0172 189.048 52.0172C188.406 52.0332 187.777 51.8621 187.262 51.5313L186.699 52.3184C187.379 52.7293 188.196 52.9405 189.025 52.9209C190.575 52.9209 191.474 52.2891 191.474 51.405C191.474 50.5208 190.767 50.1612 189.598 50.0155L189.037 49.9475C188.53 49.8891 188.126 49.8017 188.126 49.4908C188.126 49.1798 188.509 48.9466 189.149 48.9466C189.74 48.9526 190.322 49.0898 190.833 49.3451L191.351 48.5288ZM222.644 48.043C222.359 48.0357 222.078 48.0951 221.828 48.2147C221.579 48.3344 221.372 48.5101 221.228 48.7231V48.1595H220.071V52.8042H221.24V50.2001C221.24 49.4324 221.622 49.0049 222.364 49.0049C222.614 49.0019 222.861 49.0415 223.094 49.1216L223.453 48.1498C223.187 48.0673 222.905 48.0245 222.622 48.0235L222.644 48.043ZM207.589 50.4722C207.576 50.7985 207.641 51.1239 207.781 51.4273C207.921 51.7306 208.132 52.0056 208.402 52.2342C208.672 52.4629 208.993 52.6403 209.348 52.7551C209.7 52.8701 210.078 52.9199 210.455 52.9014C211.156 52.9322 211.846 52.7346 212.387 52.3476L211.826 51.5313C211.422 51.7977 210.929 51.9442 210.421 51.9492C209.99 51.9189 209.586 51.7491 209.293 51.4737C208.998 51.1983 208.836 50.8372 208.836 50.4624C208.836 50.0876 208.998 49.7266 209.293 49.4512C209.586 49.1756 209.99 49.0061 210.421 48.9758C210.929 48.9806 211.422 49.1272 211.826 49.3936L212.387 48.5774C211.846 48.1903 211.156 47.9926 210.455 48.0235C210.078 48.0051 209.7 48.0548 209.348 48.1696C208.993 48.2846 208.672 48.462 208.402 48.6907C208.132 48.9194 207.921 49.1943 207.781 49.4977C207.641 49.801 207.576 50.1264 207.589 50.4527V50.4722ZM218.533 50.4722V48.1595H217.364V48.7231C217.165 48.5023 216.909 48.3254 216.616 48.2073C216.323 48.0889 216.002 48.0327 215.679 48.043C214.934 48.043 214.22 48.2989 213.694 48.7544C213.165 49.2101 212.871 49.8278 212.871 50.4722C212.871 51.1164 213.165 51.7343 213.694 52.19C214.22 52.6454 214.934 52.9014 215.679 52.9014C216.002 52.9117 216.323 52.8555 216.616 52.7371C216.909 52.6188 217.165 52.4421 217.364 52.2212V52.7847H218.533V50.4722ZM214.185 50.4722C214.204 50.1988 214.314 49.936 214.503 49.7163C214.692 49.4967 214.952 49.3296 215.248 49.2357C215.546 49.1419 215.869 49.1252 216.177 49.1881C216.485 49.2509 216.766 49.3901 216.983 49.5889C217.202 49.7877 217.348 50.0372 217.404 50.3068C217.458 50.5764 217.422 50.8543 217.298 51.1061C217.174 51.358 216.967 51.5729 216.704 51.7245C216.44 51.8759 216.131 51.9575 215.814 51.9588C215.591 51.9613 215.371 51.9239 215.165 51.849C214.96 51.7741 214.776 51.6634 214.622 51.5238C214.47 51.3842 214.353 51.2186 214.276 51.0377C214.202 50.8566 214.17 50.6641 214.185 50.4722ZM200.086 48.043C199.341 48.052 198.631 48.3166 198.111 48.7786C197.591 49.2404 197.306 49.8619 197.316 50.5061C197.326 51.1505 197.633 51.7648 198.167 52.2139C198.701 52.6631 199.419 52.9104 200.164 52.9014C200.972 52.9372 201.767 52.7122 202.394 52.2698L201.833 51.5216C201.389 51.8293 200.84 52.0002 200.27 52.0074C199.884 52.0362 199.5 51.9335 199.2 51.7212C198.901 51.5088 198.709 51.2036 198.664 50.8706H202.652C202.652 50.7443 202.652 50.618 202.652 50.4818C202.652 49.0244 201.608 48.0526 200.103 48.0526L200.086 48.043ZM200.086 48.9466C200.26 48.9433 200.434 48.9699 200.598 49.0249C200.76 49.0798 200.909 49.162 201.035 49.2667C201.161 49.3713 201.262 49.4965 201.333 49.635C201.402 49.7734 201.441 49.9225 201.445 50.0738H198.636C198.656 49.7619 198.818 49.4694 199.085 49.2587C199.351 49.048 199.702 48.936 200.063 48.9466H200.086ZM229.357 50.4818V46.2939H228.233V48.7231C228.034 48.5023 227.778 48.3254 227.486 48.2073C227.193 48.0889 226.871 48.0327 226.548 48.043C225.803 48.043 225.089 48.2989 224.563 48.7544C224.036 49.2101 223.74 49.8278 223.74 50.4722C223.74 51.1164 224.036 51.7343 224.563 52.19C225.089 52.6454 225.803 52.9014 226.548 52.9014C226.871 52.9117 227.193 52.8555 227.486 52.7371C227.778 52.6188 228.034 52.4421 228.233 52.2212V52.7847H229.357V50.4818ZM231.306 52.1289C231.379 52.1281 231.452 52.1397 231.519 52.1628C231.584 52.1856 231.644 52.2186 231.693 52.26C231.743 52.302 231.783 52.3514 231.811 52.4058C231.841 52.4626 231.854 52.5238 231.854 52.5855C231.854 52.6474 231.841 52.7087 231.811 52.7653C231.783 52.8199 231.743 52.8693 231.693 52.911C231.644 52.9525 231.584 52.9854 231.519 53.0082C231.452 53.0339 231.379 53.0472 231.306 53.0472C231.2 53.0465 231.096 53.0196 231.006 52.9696C230.917 52.9199 230.846 52.849 230.801 52.7653C230.773 52.7085 230.758 52.6474 230.758 52.5855C230.758 52.5238 230.773 52.4626 230.801 52.4058C230.829 52.3514 230.869 52.302 230.919 52.26C230.968 52.2186 231.028 52.1856 231.092 52.1628C231.165 52.1377 231.245 52.1261 231.322 52.1289H231.306ZM231.306 52.95C231.362 52.9503 231.417 52.9403 231.468 52.9209C231.518 52.9022 231.561 52.8758 231.597 52.8432C231.668 52.7768 231.707 52.69 231.707 52.6002C231.707 52.5101 231.668 52.4236 231.597 52.3572C231.561 52.3244 231.518 52.2981 231.468 52.2795C231.417 52.2602 231.362 52.2502 231.306 52.2504C231.25 52.2505 231.195 52.2605 231.144 52.2795C231.092 52.2975 231.046 52.3238 231.008 52.3572C230.938 52.4236 230.899 52.5101 230.899 52.6002C230.899 52.69 230.938 52.7768 231.008 52.8432C231.048 52.8764 231.092 52.9027 231.144 52.9209C231.2 52.942 231.261 52.952 231.322 52.95H231.306ZM231.339 52.3719C231.392 52.3697 231.443 52.3833 231.486 52.4106C231.503 52.4229 231.516 52.4386 231.524 52.4564C231.534 52.4742 231.538 52.4935 231.536 52.5126C231.538 52.5288 231.534 52.5449 231.528 52.5601C231.521 52.5751 231.51 52.5887 231.496 52.6002C231.465 52.6258 231.423 52.6411 231.379 52.6439L231.543 52.8042H231.414L231.261 52.6439H231.21V52.8042H231.104V52.3767L231.339 52.3719ZM231.217 52.4544V52.5711H231.339C231.362 52.5767 231.385 52.5767 231.407 52.5711C231.41 52.5642 231.414 52.5567 231.414 52.5491C231.414 52.5416 231.41 52.5341 231.407 52.5273C231.41 52.5205 231.414 52.513 231.414 52.5055C231.414 52.4978 231.41 52.4903 231.407 52.4835C231.385 52.4779 231.362 52.4779 231.339 52.4835L231.217 52.4544ZM225.038 50.4818C225.056 50.2084 225.167 49.9458 225.356 49.7261C225.544 49.5063 225.804 49.3394 226.101 49.2455C226.399 49.1515 226.722 49.135 227.03 49.1978C227.337 49.2605 227.619 49.3998 227.836 49.5987C228.054 49.7974 228.2 50.047 228.256 50.3166C228.311 50.5862 228.275 50.8639 228.15 51.1159C228.026 51.3677 227.819 51.5827 227.556 51.7341C227.293 51.8856 226.983 51.9671 226.667 51.9686C226.443 51.971 226.223 51.9335 226.018 51.8588C225.813 51.7839 225.629 51.6731 225.475 51.5334C225.323 51.3938 225.205 51.2282 225.129 51.0473C225.054 50.8663 225.023 50.6739 225.038 50.4818ZM185.588 50.4818V48.1595H184.419V48.7231C184.221 48.5023 183.964 48.3254 183.671 48.2073C183.378 48.0889 183.057 48.0327 182.734 48.043C181.989 48.043 181.275 48.2989 180.747 48.7544C180.221 49.2101 179.926 49.8278 179.926 50.4722C179.926 51.1164 180.221 51.7343 180.747 52.19C181.275 52.6454 181.989 52.9014 182.734 52.9014C183.057 52.9117 183.378 52.8555 183.671 52.7371C183.964 52.6188 184.221 52.4421 184.419 52.2212V52.7847H185.588V50.4818ZM181.239 50.4818C181.259 50.2084 181.37 49.9458 181.558 49.7261C181.747 49.5063 182.007 49.3394 182.303 49.2455C182.601 49.1515 182.924 49.135 183.232 49.1978C183.54 49.2605 183.82 49.3998 184.038 49.5987C184.257 49.7974 184.403 50.047 184.457 50.3166C184.514 50.5862 184.477 50.8639 184.353 51.1159C184.229 51.3677 184.022 51.5827 183.759 51.7341C183.494 51.8856 183.186 51.9671 182.868 51.9686C182.644 51.9723 182.424 51.936 182.217 51.8616C182.01 51.7874 181.825 51.6769 181.671 51.5371C181.517 51.3973 181.398 51.2314 181.322 51.0497C181.245 50.8679 181.214 50.6747 181.229 50.4818H181.239Z" fill="black"/>
<path d="M209.465 13.8838H192.147V40.8008H209.465V13.8838Z" fill="#FF5F00"/>
<path d="M193.246 27.3404C193.245 24.7485 193.923 22.1901 195.233 19.859C196.543 17.5276 198.448 15.4846 200.806 13.8843C197.887 11.899 194.38 10.6642 190.687 10.3211C186.995 9.97797 183.265 10.5404 179.925 11.944C176.584 13.3476 173.768 15.5358 171.798 18.2585C169.828 20.9811 168.783 24.1284 168.783 27.3404C168.783 30.5525 169.828 33.6998 171.798 36.4224C173.768 39.145 176.584 41.3332 179.925 42.7369C183.265 44.1405 186.995 44.7028 190.687 44.3597C194.38 44.0167 197.887 42.7819 200.806 40.7965C198.448 39.1962 196.543 37.1531 195.233 34.8219C193.923 32.4906 193.245 29.9322 193.246 27.3404Z" fill="#EB001B"/>
<path d="M232.828 27.34C232.828 30.552 231.783 33.6991 229.813 36.4217C227.843 39.1443 225.026 41.3324 221.685 42.7359C218.346 44.1397 214.616 44.702 210.924 44.359C207.232 44.016 203.725 42.7812 200.807 40.7962C203.161 39.1944 205.065 37.151 206.374 34.8201C207.684 32.4891 208.364 29.9314 208.364 27.34C208.364 24.7485 207.684 22.191 206.374 19.86C205.065 17.5291 203.161 15.4857 200.807 13.8839C203.725 11.8988 207.232 10.6641 210.924 10.3211C214.616 9.97802 218.346 10.5404 221.685 11.944C225.026 13.3476 227.843 15.5358 229.813 18.2584C231.783 20.981 232.828 24.1281 232.828 27.34Z" fill="#F79E1B"/>
<path d="M230.953 37.9479V37.3964H231.212V37.2822H230.558V37.3964H230.816V37.9479H230.953ZM232.223 37.9479V37.2822H232.026L231.794 37.7577L231.564 37.2822H231.361V37.9479H231.503V37.444L231.718 37.8767H231.867L232.086 37.444V37.9479H232.223Z" fill="#F79E1B"/>
<path d="M390.722 0H296.352C291.78 0 288.074 3.72539 288.074 8.3209V54.9179C288.074 59.5134 291.78 63.2388 296.352 63.2388H390.722C395.293 63.2388 399 59.5134 399 54.9179V8.3209C399 3.72539 395.293 0 390.722 0Z" fill="#EFEFEF"/>
<path d="M386.272 31.8472C385.924 31.9552 385.565 32.0056 385.211 32.0795C384.148 32.3022 383.082 32.5154 382.019 32.7327C381.746 32.7886 381.752 32.786 381.681 32.5277C381.108 30.4779 379.807 29.1469 377.777 28.5526C376.845 28.283 375.857 28.283 374.923 28.5526C374.867 28.5649 374.812 28.5809 374.757 28.6004C374.643 28.6455 374.598 28.6004 374.564 28.4884C374.434 28.0961 374.297 27.6862 374.161 27.2913C373.847 26.3421 373.532 25.3928 373.218 24.4436C373.211 24.4195 373.204 24.3957 373.194 24.3725C373.141 24.2672 373.166 24.2153 373.287 24.1785C373.64 24.0661 373.997 23.975 374.362 23.9051C377.398 23.3504 380.161 23.9803 382.603 25.8866C384.39 27.2694 385.651 29.2253 386.178 31.429C386.199 31.5165 386.211 31.608 386.227 31.7022C386.247 31.7337 386.227 31.7788 386.267 31.8061L386.272 31.8472Z" fill="#231F20"/>
<path d="M386.228 36.1272C386.056 36.9802 385.758 37.8028 385.345 38.5677C383.817 41.4113 381.481 43.1933 378.334 43.8628C376.687 44.2081 374.98 44.1224 373.374 43.6142L373.256 43.5785C373.17 43.5554 373.129 43.509 373.168 43.416C373.182 43.386 373.192 43.3545 373.202 43.3231C373.649 41.9912 374.094 40.6584 374.541 39.3247C374.554 39.2572 374.584 39.1939 374.627 39.1402C374.799 39.1826 374.975 39.2277 375.15 39.2686C376.538 39.5853 377.993 39.3484 379.21 38.6076C380.427 37.8669 381.311 36.6804 381.675 35.2976C381.75 35.008 381.75 35.008 382.041 35.0681L386.228 35.9276C386.244 35.929 386.261 35.929 386.276 35.9276V35.9767C386.223 36.0218 386.261 36.0821 386.228 36.1272Z" fill="#231F20"/>
<path d="M366.035 40.0818C366.028 40.1561 366.005 40.228 365.965 40.2909C365.457 41.4871 364.949 42.6813 364.439 43.8738C364.426 43.8953 364.416 43.9176 364.407 43.9407C364.379 44.0529 364.328 44.0775 364.214 44.0309C363.126 43.5691 362.013 43.1401 360.936 42.6453C359.704 42.0797 359.02 41.0712 358.8 39.7347C358.757 39.4316 358.737 39.1254 358.742 38.8192V19.5777C358.742 19.3385 358.742 19.3631 358.957 19.3631H362.815C363.076 19.3631 363.05 19.3495 363.05 19.6091V33.9039C363.05 35.4699 363.05 37.0359 363.05 38.6019C363.05 38.8753 363.003 38.8247 363.275 38.9354L365.868 39.9848C365.931 40.0025 365.989 40.0359 366.035 40.0818Z" fill="#231F20"/>
<path d="M372.711 29.7215C372.127 30.2439 371.66 30.8846 371.339 31.6017C371.019 32.3188 370.854 33.0958 370.854 33.8816C370.854 34.6676 371.019 35.4446 371.339 36.1617C371.66 36.8788 372.127 37.5195 372.711 38.0419L369.654 41.4787C369.554 41.4636 369.508 41.3899 369.452 41.3351C367.784 39.7542 366.71 37.8383 366.364 35.5563C365.821 31.9829 366.882 28.9343 369.463 26.4199C369.47 26.4138 369.475 26.4078 369.481 26.4023C369.657 26.245 369.625 26.2437 369.781 26.4173C370.716 27.4658 371.654 28.5135 372.589 29.5602C372.64 29.6121 372.697 29.6518 372.711 29.7215Z" fill="#231F20"/>
<path d="M343.779 38.5938C343.84 38.6088 343.882 38.6649 343.932 38.7045C344.379 39.0611 344.89 39.3257 345.44 39.4832C345.988 39.6404 346.562 39.6875 347.128 39.6213C348.266 39.5123 349.354 39.0957 350.276 38.4161C350.738 38.0778 351.137 37.6617 351.458 37.1863C351.488 37.1177 351.539 37.0604 351.604 37.0223L355.315 39.5134C355.057 39.9335 354.759 40.3287 354.426 40.694C353.133 42.1357 351.524 43.065 349.691 43.628C348.577 43.9734 347.41 44.1061 346.248 44.0187C344.529 43.8899 342.875 43.3139 341.446 42.3475C341.347 42.282 341.309 42.2355 341.388 42.1179C342.163 40.9656 342.933 39.8108 343.7 38.6539C343.708 38.6388 343.72 38.6256 343.733 38.6153C343.748 38.6048 343.763 38.5975 343.779 38.5938Z" fill="#231F20"/>
<path d="M356.585 30.9741C356.348 30.3206 356.065 29.6852 355.736 29.0733C355.097 27.8791 354.312 26.794 353.234 25.9672C350.931 24.2045 348.338 23.4132 345.444 23.7808C343.913 23.9553 342.451 24.5144 341.191 25.4071C338.345 27.4567 337.011 30.3264 336.832 33.7822C336.855 34.2537 336.877 34.7168 336.945 35.176C337.137 36.49 337.577 37.7551 338.239 38.9039C338.426 39.2318 338.347 39.1772 338.657 39.0474C342.961 37.1662 347.262 35.2822 351.565 33.3955L356.459 31.2528C356.655 31.1681 356.653 31.1668 356.585 30.9741ZM341.433 33.8711C341.423 33.6278 341.402 33.4188 341.405 33.2083C341.438 30.9277 342.661 29.1799 344.786 28.3723C345.461 28.1009 346.181 27.9618 346.91 27.9623C347.873 27.9792 348.805 28.3064 349.57 28.8957C349.79 29.0573 349.997 29.2359 350.189 29.4299C350.325 29.5665 350.461 29.717 350.626 29.8932L341.433 33.8711Z" fill="#231F20"/>
<path d="M314.754 48.2144C313.819 48.1188 312.894 47.9507 311.985 47.7115C311.713 47.6378 311.44 47.5558 311.18 47.4711C311.005 47.4163 311.005 47.411 311.064 47.2306L311.935 44.6178C312.324 43.4481 312.715 42.2788 313.105 41.1101C313.173 40.9092 313.175 40.9079 313.379 40.9734C314.546 41.3415 315.773 41.4808 316.993 41.3833C319.003 41.2365 320.918 40.4679 322.476 39.1828C324.034 37.8979 325.158 36.1595 325.693 34.2065C325.733 34.0616 325.766 33.9168 325.801 33.772C325.849 33.567 325.849 33.5657 326.039 33.6053L328.215 34.0548L332.21 34.8747C332.537 34.9416 332.541 34.939 332.469 35.2547C331.772 38.3487 330.213 41.1793 327.973 43.4161C325.734 45.6528 322.91 47.2031 319.827 47.8864C319.15 48.0291 318.465 48.1372 317.778 48.2103C317.701 48.2499 317.62 48.2226 317.543 48.2308H317.221C317.077 48.2431 316.928 48.2035 316.786 48.2567H315.841C315.731 48.2021 315.612 48.2431 315.498 48.2308H314.905C314.859 48.2308 314.804 48.2472 314.754 48.2144Z" fill="#EF3120"/>
<path d="M299.705 32.694C299.716 32.4723 299.71 32.2503 299.687 32.0298C299.655 31.7432 299.655 31.4542 299.687 31.1676C299.71 30.9466 299.716 30.7241 299.707 30.5021C300.054 25.9707 301.922 22.191 305.261 19.1096C305.433 19.2995 305.587 19.4691 305.738 19.6398C306.996 21.0682 308.253 22.4962 309.508 23.9238C309.6 24.0289 309.746 24.1356 309.758 24.2518C309.768 24.3679 309.587 24.4485 309.485 24.5428C307.973 26.0378 306.995 27.8224 306.655 29.924C306.16 32.9904 306.927 35.718 308.948 38.0833C309.216 38.3893 309.501 38.6792 309.802 38.9511L305.296 44.07C302.675 41.8713 300.039 37.8155 299.705 32.694Z" fill="#38A7E4"/>
<path d="M317.58 14.9777H317.777C318.486 15.0692 319.198 15.1621 319.898 15.3206C322.421 15.8784 324.776 17.0306 326.769 18.6823C329.325 20.7667 331.201 23.5736 332.155 26.7404C332.29 27.1831 332.405 27.6317 332.499 28.0864C332.537 28.2668 332.534 28.2723 332.347 28.3106L330.603 28.6659L326.125 29.5855C326.11 29.5903 326.093 29.5945 326.077 29.5978C325.848 29.6442 325.848 29.6442 325.799 29.4242C325.517 28.1505 324.979 26.9484 324.214 25.8932C322.651 23.7505 320.575 22.4182 317.969 21.9467C316.438 21.6662 314.862 21.7642 313.377 22.2323C313.18 22.2926 313.178 22.2911 313.104 22.0862L311.082 16.008C311.009 15.7866 311.009 15.7825 311.219 15.7142C312.132 15.4185 313.069 15.2068 314.019 15.0815C314.291 15.046 314.575 15.0146 314.854 14.9818L317.58 14.9777Z" fill="#FBC707"/>
</svg>
