<svg width="667" height="389" viewBox="0 0 667 389" fill="none" xmlns="http://www.w3.org/2000/svg">
<path opacity="0.1" d="M636 222.272C635.987 240.057 631.304 257.629 622.274 273.773C613.244 289.918 600.082 304.252 583.696 315.785C567.31 327.319 548.091 335.779 527.364 340.58C506.637 345.381 484.896 346.409 463.641 343.594H227.876C218.77 344.626 209.59 345.144 200.398 345.144C110.83 345.144 34.9726 296.592 9.31499 229.606C3.1223 213.421 -0.0194224 196.546 9.03354e-05 179.572C9.03354e-05 88.1267 89.724 14 200.398 14C289.534 14 365.063 62.0709 391.093 128.575C417.942 109.7 452.059 99.3555 487.311 99.4003C569.419 99.4003 636 154.411 636 222.272Z" fill="#F1D8AA"/>
<path opacity="0.1" d="M578.873 319.079C562.736 329.489 544.175 337.039 524.349 341.257C504.522 345.475 483.856 346.27 463.641 343.594H227.877C218.77 344.626 209.59 345.144 200.398 345.144C110.83 345.144 34.9727 296.592 9.31506 229.606C28.5055 195.716 77.8223 171.601 135.644 171.601C191.988 171.601 240.256 194.506 260.44 227.038C270.365 225.546 280.434 224.799 290.522 224.804C348.92 224.804 398.642 249.41 417.417 283.837C432.968 279.942 449.134 277.977 465.384 278.007C513.014 278.007 554.875 294.372 578.873 319.079Z" fill="#F1D8AA"/>
<path opacity="0.1" d="M318.278 389C474.635 389 601.388 383.764 601.388 377.304C601.388 370.845 474.635 365.609 318.278 365.609C161.92 365.609 35.167 370.845 35.167 377.304C35.167 383.764 161.92 389 318.278 389Z" fill="#F1D8AA"/>
<path opacity="0.1" d="M504.254 128.419C503.775 127.853 503.512 127.183 503.499 126.493C503.499 122.314 513.813 118.925 526.536 118.925C539.26 118.925 549.574 122.314 549.574 126.493C549.549 127.277 549.213 128.032 548.619 128.644C562.786 129.946 572.334 132.395 572.334 135.207C572.334 139.385 551.206 142.775 525.148 142.775C499.091 142.775 477.963 139.385 477.963 135.207C477.963 132.244 488.677 129.657 504.254 128.419Z" fill="#F1D8AA"/>
<path opacity="0.1" d="M421.502 48.1463C421.114 47.6836 420.899 47.1363 420.886 46.5732C420.886 43.1608 429.301 40.3998 439.677 40.3998C450.052 40.3998 458.473 43.1517 458.473 46.5732C458.454 47.2112 458.183 47.8265 457.701 48.3252C469.253 49.3939 477.042 51.389 477.042 53.6822C477.042 57.09 459.833 59.8556 438.55 59.8556C417.266 59.8556 400.052 57.1038 400.052 53.6822C400.052 51.2514 408.795 49.1554 421.502 48.1463Z" fill="#F1D8AA"/>
<path opacity="0.1" d="M169.656 77.7796C169.039 77.315 168.606 76.7077 168.412 76.0368C167.302 71.9548 176.484 66.795 188.902 64.5109C201.32 62.2269 212.283 63.6762 213.382 67.7582C213.565 68.5272 213.438 69.3244 213.022 70.0285C227.188 68.758 237.153 69.4322 237.891 72.1749C239.001 76.2523 219.261 83.3568 193.826 88.035C168.39 92.7132 146.879 93.2086 145.78 89.1266C144.997 86.2233 154.795 81.7928 169.656 77.7796Z" fill="#F1D8AA"/>
<path opacity="0.1" d="M113.567 73.9086C112.273 73.2895 110.525 73.8811 109.636 74.8764C108.748 75.8717 108.498 77.1696 108.276 78.3759C107.782 81.0865 107.421 84.2007 109.636 86.2463C106.017 77.1788 95.6085 70.2303 84.1008 69.2167" stroke="#F1D8AA" stroke-width="3" stroke-miterlimit="10"/>
<path opacity="0.1" d="M226.272 116.678C225.44 116.279 224.318 116.678 223.747 117.301C223.24 117.981 222.939 118.752 222.869 119.549C222.553 121.296 222.314 123.296 223.747 124.594C222.527 121.683 220.343 119.113 217.443 117.178C214.543 115.242 211.043 114.019 207.343 113.646" stroke="#F1D8AA" stroke-width="3" stroke-miterlimit="10"/>
<path opacity="0.1" d="M409.739 89.4889C408.906 89.0945 407.785 89.4889 407.213 90.1127C406.706 90.794 406.405 91.5666 406.336 92.3647C406.02 94.1075 405.781 96.1072 407.213 97.4098C405.993 94.4995 403.809 91.9305 400.909 89.9951C398.009 88.0597 394.51 86.8355 390.81 86.4619" stroke="#F1D8AA" stroke-width="3" stroke-miterlimit="10"/>
<path d="M373.56 96.7617L372.137 108.718L363.338 182.494L348.928 303.313L345.32 333.562C345.046 335.871 344.049 337.988 342.516 339.52C340.983 341.052 339.017 341.897 336.982 341.896H240.892C238.86 341.897 236.897 341.056 235.365 339.528C233.832 338.001 232.834 335.89 232.554 333.585L228.884 303.313L214.231 182.494L205.277 108.665L203.838 96.7854C203.672 95.4208 203.763 94.0312 204.106 92.7105C204.448 91.3897 205.034 90.1685 205.824 89.1292C206.614 88.0898 207.589 87.2565 208.684 86.6855C209.779 86.1145 210.968 85.8191 212.171 85.8192H365.222C366.423 85.8198 367.61 86.1147 368.704 86.6843C369.797 87.2538 370.771 88.0848 371.561 89.1213C372.351 90.1578 372.938 91.3759 373.283 92.6937C373.628 94.0115 373.722 95.3986 373.56 96.7617Z" fill="#F1D8AA"/>
<path d="M363.995 63.448C363.995 58.1249 360.227 53.8096 355.579 53.8096H288.945H222.311C217.663 53.8096 213.895 58.1249 213.895 63.448V76.1807C213.895 81.5039 217.663 85.8192 222.311 85.8192H355.579C360.227 85.8192 363.995 81.5039 363.995 76.1807V63.448Z" fill="#4B4A5F"/>
<path opacity="0.1" d="M363.995 68.937V76.1807C363.995 78.7369 363.108 81.1885 361.53 82.996C359.952 84.8036 357.811 85.8191 355.579 85.8191H222.311C220.079 85.8191 217.938 84.8036 216.36 82.996C214.781 81.1885 213.895 78.7369 213.895 76.1807V68.9548C263.815 74.4024 314.075 74.3964 363.995 68.937Z" fill="black"/>
<path opacity="0.1" d="M373.081 92.0432C373.079 92.036 373.077 92.0291 373.074 92.0219C372.853 91.3584 372.568 90.725 372.225 90.1333L372.224 90.1317C372.123 89.9571 372.015 89.7882 371.904 89.6216C371.867 89.5659 371.829 89.5114 371.791 89.4566C371.468 88.993 371.109 88.5643 370.718 88.1758C370.631 88.0889 370.543 88.0032 370.453 87.9203C370.351 87.8276 370.249 87.7365 370.144 87.6491C370.012 87.5395 369.876 87.4365 369.739 87.3356C369.631 87.2562 369.522 87.1783 369.41 87.1045C369.238 86.9902 369.061 86.8827 368.881 86.782C368.795 86.7344 368.708 86.69 368.621 86.6456C368.449 86.5581 368.274 86.4774 368.096 86.4034C368.024 86.3735 367.953 86.3407 367.881 86.313C367.634 86.2188 367.382 86.1376 367.126 86.0694C367.063 86.0528 366.998 86.041 366.935 86.0259C366.725 85.9761 366.512 85.9355 366.297 85.904C366.218 85.8926 366.141 85.881 366.062 85.8721C365.786 85.8408 365.507 85.8192 365.222 85.8192L212.171 85.8192C210.969 85.8237 209.783 86.1222 208.69 86.6945C207.597 87.2669 206.624 88.0999 205.835 89.1379C205.046 90.1759 204.459 91.3948 204.115 92.7133C203.77 94.0317 203.676 95.4192 203.837 96.7829L204.08 98.7871L205.277 108.665L205.278 108.665L214.232 182.494L225.985 279.406L232.555 333.584C232.834 335.888 233.832 337.999 235.364 339.527C236.896 341.054 238.859 341.896 240.89 341.896H245.45C245.225 341.223 245.066 340.522 244.977 339.808L240.551 303.313H348.928L363.338 182.494H225.899L217.089 109.846C268.702 114.64 320.581 114.262 372.137 108.718L373.56 96.7617C373.749 95.1678 373.585 93.545 373.081 92.0432Z" fill="black"/>
<path d="M385.6 101.824C321.354 109.855 256.536 109.855 192.29 101.824C190.058 101.824 187.918 100.809 186.34 99.0011C184.761 97.1937 183.875 94.7422 183.875 92.1861V79.4522C183.875 76.8961 184.761 74.4447 186.34 72.6372C187.918 70.8298 190.058 69.8144 192.29 69.8144C256.485 78.8537 321.405 78.8537 385.6 69.8144C387.832 69.8144 389.972 70.8298 391.55 72.6372C393.128 74.4447 394.015 76.8961 394.015 79.4522V92.1861C394.015 94.7422 393.128 97.1937 391.55 99.0011C389.972 100.809 387.832 101.824 385.6 101.824Z" fill="#5B5A6F"/>
<path d="M352.885 298.92H223.496C222.334 298.92 221.211 298.446 220.327 297.582C219.444 296.718 218.858 295.522 218.676 294.208L204.698 193.351C204.587 192.553 204.629 191.737 204.82 190.959C205.012 190.182 205.348 189.461 205.806 188.846C206.264 188.232 206.833 187.738 207.474 187.4C208.114 187.062 208.812 186.887 209.517 186.887H367.795C368.505 186.887 369.206 187.064 369.85 187.406C370.494 187.748 371.064 188.247 371.522 188.868C371.981 189.489 372.315 190.217 372.502 191.001C372.689 191.785 372.725 192.606 372.606 193.408L357.696 294.265C357.503 295.566 356.915 296.748 356.034 297.6C355.153 298.453 354.038 298.92 352.885 298.92Z" fill="#383628" fill-opacity="0.38"/>
</svg>
