<svg width="949" height="214" viewBox="0 0 949 214" fill="none" xmlns="http://www.w3.org/2000/svg">
<g clip-path="url(#clip0)">
<path d="M607.586 176.201C605.916 189.299 599.772 201.283 593.217 212.827C593.001 213.22 592.778 213.607 592.549 214H524.427C523.049 213.642 521.689 213.249 520.335 212.827C512.641 210.483 505.377 206.907 498.826 202.239C473.764 184.173 464.12 150.034 468.476 119.444C471.184 100.439 479.52 81.0349 495.754 70.7991C504.325 65.385 515.334 63.6253 525.201 65.6373C525.459 65.6842 525.717 65.7428 525.981 65.7956C534.469 67.7079 542.032 72.4591 546.335 80.114C554.074 93.8692 549.466 110.909 545.661 126.219C541.868 141.528 539.81 159.853 550.82 171.145C547.185 160.44 550.773 147.67 559.455 140.432C566.016 134.971 575.149 132.923 583.48 134.619C584.277 134.789 585.063 134.982 585.837 135.217C587.707 135.765 589.51 136.52 591.212 137.469C604.198 144.725 609.457 161.437 607.586 176.201Z" fill="#F2F2F2"/>
<path d="M567.194 212.827C569.082 213.267 570.975 213.654 572.88 214H562.58C561.232 213.636 559.889 213.249 558.559 212.827C555.633 211.912 552.753 210.862 549.917 209.677C538.544 204.902 528.068 197.734 520.142 188.196C516.265 183.575 513.1 178.402 510.75 172.846C508.202 166.566 506.582 159.948 505.943 153.201C504.506 139.358 505.972 125.134 508.71 111.537C511.535 97.4444 516.096 83.7569 522.287 70.7874C523.032 69.233 523.802 67.6883 524.597 66.1534C524.652 66.0271 524.735 65.9149 524.839 65.8254C524.944 65.736 525.068 65.6716 525.201 65.6372C525.471 65.5847 525.752 65.6417 525.981 65.7956C526.255 65.9532 526.459 66.2103 526.549 66.5137C526.64 66.8172 526.61 67.1439 526.467 67.4263C520.083 79.8827 515.244 93.0728 512.057 106.703C508.938 120.001 507.168 133.915 507.772 147.588C508.346 160.363 511.682 172.928 519.25 183.375C526.162 192.912 535.706 200.432 546.265 205.553C552.948 208.752 559.968 211.192 567.194 212.827V212.827Z" fill="white"/>
<path d="M589.8 214H586.763C586.423 213.613 586.094 213.22 585.772 212.827C578.855 204.418 574.169 194.399 572.147 183.697C569.693 170.343 571.602 156.552 577.594 144.368C579.265 140.951 581.235 137.689 583.48 134.619C584.277 134.789 585.063 134.982 585.836 135.217C579.932 143.044 575.961 152.157 574.246 161.812C572.717 170.86 573.225 180.134 575.735 188.96C578.244 197.786 582.69 205.94 588.75 212.827C589.09 213.22 589.442 213.613 589.8 214Z" fill="white"/>
<path d="M863.366 204.024C863.807 207.481 865.429 210.644 867.159 213.69C867.216 213.794 867.275 213.896 867.335 214H885.314C885.677 213.906 886.036 213.802 886.394 213.69C888.424 213.072 890.341 212.128 892.07 210.896C898.685 206.128 901.23 197.118 900.08 189.045C899.365 184.029 897.165 178.908 892.881 176.207C890.555 174.789 887.779 174.302 885.109 174.844C885.041 174.857 884.973 174.872 884.904 174.886C883.792 175.101 882.739 175.549 881.813 176.2C880.887 176.852 880.11 177.692 879.532 178.665C877.489 182.295 878.705 186.793 879.709 190.833C880.711 194.874 881.254 199.71 878.348 202.69C878.774 201.443 878.86 200.106 878.599 198.815C878.337 197.525 877.736 196.327 876.858 195.345C875.981 194.364 874.858 193.634 873.605 193.23C872.351 192.827 871.014 192.765 869.728 193.05C869.518 193.095 869.311 193.146 869.106 193.208C868.613 193.352 868.137 193.552 867.688 193.802C864.261 195.717 862.873 200.128 863.366 204.024Z" fill="#F2F2F2"/>
<path d="M874.027 213.69C873.528 213.807 873.029 213.909 872.526 214H875.244C875.6 213.904 875.955 213.802 876.306 213.69C877.078 213.449 877.838 213.172 878.586 212.859C881.622 211.626 884.317 209.682 886.445 207.19C887.468 205.97 888.303 204.605 888.923 203.139C889.596 201.481 890.023 199.735 890.192 197.954C890.5 194.273 890.254 190.566 889.462 186.958C888.716 183.239 887.512 179.626 885.878 176.204C885.682 175.793 885.479 175.386 885.269 174.981C885.254 174.947 885.232 174.918 885.205 174.894C885.177 174.87 885.145 174.853 885.109 174.844C885.038 174.831 884.964 174.846 884.904 174.886C884.831 174.928 884.777 174.996 884.753 175.076C884.73 175.156 884.737 175.242 884.775 175.317C886.46 178.604 887.737 182.085 888.578 185.683C889.444 189.211 889.825 192.841 889.709 196.473C889.647 199.85 888.594 203.135 886.68 205.917C884.818 208.424 882.37 210.434 879.55 211.771C877.786 212.615 875.934 213.259 874.027 213.69Z" fill="white"/>
<path d="M868.061 214H868.862C868.952 213.898 869.038 213.794 869.123 213.69C870.949 211.471 872.186 208.827 872.719 206.003C873.367 202.478 872.863 198.838 871.282 195.623C870.841 194.721 870.321 193.86 869.728 193.05C869.518 193.095 869.311 193.146 869.106 193.208C870.665 195.273 871.713 197.679 872.165 200.227C872.569 202.614 872.435 205.062 871.773 207.392C871.11 209.721 869.937 211.873 868.337 213.69C868.248 213.794 868.155 213.898 868.061 214Z" fill="white"/>
<path d="M701.316 124.652H645.047L644.45 107.342C644.425 106.592 644.562 105.845 644.852 105.152C645.142 104.46 645.579 103.839 646.133 103.332C646.686 102.824 647.342 102.443 648.057 102.214C648.772 101.985 649.527 101.914 650.272 102.005L683.017 106.017H683.021C687.875 106.03 692.527 107.968 695.956 111.406C699.385 114.844 701.312 119.502 701.316 124.359V124.652Z" fill="#F9A826"/>
<path d="M676.236 63.25H636.992C636.47 63.2499 635.953 63.3526 635.471 63.5524C634.988 63.7522 634.55 64.0451 634.181 64.4143C633.812 64.7836 633.519 65.222 633.32 65.7045C633.12 66.187 633.017 66.7042 633.018 67.2264V106.493C633.017 107.015 633.12 107.532 633.32 108.015C633.519 108.497 633.812 108.936 634.181 109.305C634.55 109.674 634.988 109.967 635.471 110.167C635.953 110.367 636.47 110.47 636.992 110.469H676.236C676.758 110.47 677.275 110.367 677.757 110.167C678.24 109.967 678.678 109.674 679.047 109.305C679.416 108.936 679.709 108.497 679.908 108.015C680.108 107.532 680.211 107.015 680.211 106.493V67.2264C680.211 66.7042 680.108 66.187 679.908 65.7045C679.709 65.222 679.416 64.7836 679.047 64.4143C678.678 64.0451 678.24 63.7522 677.757 63.5524C677.275 63.3526 676.758 63.2499 676.236 63.25V63.25Z" fill="#CCCCCC"/>
<path d="M680.211 67.2264V72.4454H633.018V67.2264C633.017 66.7042 633.12 66.187 633.32 65.7045C633.519 65.222 633.812 64.7836 634.181 64.4143C634.55 64.0451 634.988 63.7522 635.471 63.5524C635.953 63.3526 636.47 63.2499 636.992 63.25H676.236C676.758 63.2499 677.275 63.3526 677.757 63.5524C678.24 63.7522 678.678 64.0451 679.047 64.4143C679.416 64.7836 679.709 65.222 679.908 65.7045C680.108 66.187 680.211 66.7042 680.211 67.2264Z" fill="#B3B3B3"/>
<path d="M774.451 74.0796C774.178 73.1997 773.716 72.3902 773.097 71.7082C772.479 71.0262 771.718 70.4882 770.868 70.1323C770.019 69.7764 769.102 69.611 768.182 69.648C767.262 69.6849 766.362 69.9233 765.544 70.3462L711.552 50.9641L709.174 64.4596L762.994 79.268C763.795 80.5957 765.055 81.5834 766.536 82.0437C768.016 82.504 769.613 82.405 771.026 81.7654C772.438 81.1259 773.567 79.9903 774.198 78.5737C774.829 77.1572 774.919 75.5582 774.451 74.0796V74.0796Z" fill="#FFB8B8"/>
<path opacity="0.2" d="M774.451 74.0796C774.178 73.1997 773.716 72.3902 773.097 71.7082C772.479 71.0262 771.718 70.4882 770.868 70.1323C770.019 69.7764 769.102 69.611 768.182 69.648C767.262 69.6849 766.362 69.9233 765.544 70.3462L711.552 50.9641L709.174 64.4596L762.994 79.268C763.795 80.5957 765.055 81.5834 766.536 82.0437C768.016 82.504 769.613 82.405 771.026 81.7654C772.438 81.1259 773.567 79.9903 774.198 78.5737C774.829 77.1572 774.919 75.5582 774.451 74.0796V74.0796Z" fill="black"/>
<path d="M721.135 53.4232L716.037 66.7504C715.892 67.1296 715.667 67.473 715.377 67.7573C715.087 68.0416 714.74 68.2602 714.358 68.398C713.976 68.5358 713.57 68.5897 713.165 68.556C712.761 68.5223 712.368 68.4017 712.015 68.2026L699.624 61.2245C697.689 60.4708 696.132 58.9803 695.294 57.0797C694.456 55.1792 694.406 53.0238 695.153 51.0859C695.901 49.1481 697.387 47.5861 699.284 46.7423C701.181 45.8985 703.335 45.8417 705.274 46.5844L719.11 49.655C719.507 49.743 719.879 49.9154 720.203 50.1605C720.526 50.4056 720.793 50.7175 720.985 51.0752C721.177 51.4328 721.29 51.8276 721.316 52.2328C721.342 52.638 721.28 53.044 721.135 53.4232V53.4232Z" fill="#F9A826"/>
<path d="M778.701 86.4197L759.354 95.2183L761.894 104.786C766.799 123.262 768.101 142.51 765.728 161.478V161.478L779.873 164.434L791.598 134.519L787.494 100.498L778.701 86.4197Z" fill="#F9A826"/>
<path d="M816.66 130.706C803.949 130.706 793.591 139.952 793.088 151.529H840.233C839.73 139.952 829.371 130.706 816.66 130.706Z" fill="#3F3D56"/>
<path d="M806.765 132.701C806.104 80.4384 776.356 85.2465 776.356 85.2465C776.356 85.2465 776.912 101.514 777.179 102.02C796.136 137.907 764.851 179.978 725.027 172.238C724.276 172.093 723.555 171.944 722.863 171.794C717.817 170.74 713.362 167.803 710.403 163.579C707.445 159.355 706.206 154.162 706.938 149.057C710.861 117.537 691.35 118.095 691.35 118.095H662.819L648.002 104.753C647.48 104.282 646.849 103.946 646.167 103.775C645.484 103.604 644.77 103.603 644.087 103.772C643.404 103.941 642.773 104.275 642.248 104.745C641.724 105.214 641.323 105.805 641.08 106.466L639.174 111.642C639.174 111.642 611.034 114.575 613.379 142.144H622.078C622.057 142.928 622.089 143.712 622.172 144.491L687.1 143.963C690.906 143.932 694.265 147.017 694.281 150.825C694.285 151.752 694.102 152.671 693.743 153.525C693.384 154.38 692.856 155.154 692.191 155.8C691.527 156.445 690.739 156.951 689.874 157.285C689.01 157.619 688.087 157.775 687.161 157.745L676.693 157.395C673.469 171.766 681.383 181.445 690.104 187.531C698.314 193.177 708.057 196.171 718.02 196.109H746.457C783.391 196.109 789.839 165.021 789.839 165.021C809.186 156.809 806.765 132.701 806.765 132.701Z" fill="#3F3D56"/>
<path d="M814.901 213.12C833.114 213.12 847.878 198.348 847.878 180.125C847.878 161.903 833.114 147.13 814.901 147.13C796.689 147.13 781.925 161.903 781.925 180.125C781.925 198.348 796.689 213.12 814.901 213.12Z" fill="#3F3D56"/>
<path d="M814.901 188.212C819.365 188.212 822.984 184.592 822.984 180.125C822.984 175.659 819.365 172.038 814.901 172.038C810.437 172.038 806.819 175.659 806.819 180.125C806.819 184.592 810.437 188.212 814.901 188.212Z" fill="white"/>
<path d="M648.407 213.12C669.371 213.12 686.366 196.115 686.366 175.139C686.366 154.163 669.371 137.158 648.407 137.158C627.442 137.158 610.447 154.163 610.447 175.139C610.447 196.115 627.442 213.12 648.407 213.12Z" fill="#3F3D56"/>
<path d="M648.407 184.448C653.545 184.448 657.711 180.281 657.711 175.139C657.711 169.998 653.545 165.83 648.407 165.83C643.268 165.83 639.103 169.998 639.103 175.139C639.103 180.281 643.268 184.448 648.407 184.448Z" fill="white"/>
<path d="M759.409 97.8182L752.448 78.9014C752.086 77.9155 751.921 76.8678 751.962 75.818C752.004 74.7683 752.253 73.7371 752.693 72.7833C753.133 71.8295 753.757 70.9718 754.528 70.2592C755.3 69.5466 756.204 68.993 757.189 68.63L777.145 61.2795C778.879 60.6407 780.721 60.3499 782.568 60.4235C784.414 60.4972 786.227 60.934 787.904 61.7089C789.582 62.4839 791.09 63.5818 792.343 64.94C793.597 66.2982 794.57 67.8901 795.209 69.6248C795.784 71.1817 796.078 72.8288 796.077 74.4889C796.07 76.5968 795.593 78.6766 794.681 80.577C793.77 82.4775 792.447 84.1508 790.808 85.4755C789.624 86.4257 788.293 87.1764 786.868 87.6981L759.409 97.8182Z" fill="#3F3D56"/>
<path d="M795.784 74.4887C795.782 76.5537 795.318 78.592 794.425 80.4537C793.532 82.3155 792.233 83.9532 790.625 85.2465C788.156 84.5951 785.859 83.4136 783.893 81.7841C781.927 80.1547 780.34 78.1164 779.241 75.8109C778.141 73.5055 777.557 70.9882 777.529 68.4341C777.5 65.88 778.028 63.3503 779.076 61.0209C781.086 60.5834 783.17 60.6021 785.172 61.0755C787.175 61.5489 789.046 62.4651 790.649 63.7568C792.251 65.0485 793.544 66.6829 794.433 68.54C795.321 70.3971 795.783 72.4298 795.784 74.4887V74.4887Z" fill="#F9A826"/>
<path d="M618.362 145.957C622.895 145.957 626.569 141.492 626.569 135.985C626.569 130.478 622.895 126.013 618.362 126.013C613.829 126.013 610.154 130.478 610.154 135.985C610.154 141.492 613.829 145.957 618.362 145.957Z" fill="#F9A826"/>
<path d="M726.854 171.283H734.041L737.461 152.632L726.853 152.632L726.854 171.283Z" fill="#FFB8B8"/>
<path d="M725.02 168.935L739.174 168.935H739.175C740.359 168.935 741.532 169.168 742.627 169.622C743.721 170.075 744.716 170.74 745.553 171.578C746.391 172.416 747.055 173.411 747.509 174.506C747.962 175.601 748.195 176.775 748.195 177.96V178.253L725.02 178.254L725.02 168.935Z" fill="#2F2E41"/>
<path d="M735.196 163.628C735.112 163.628 735.028 163.624 734.944 163.616L724.997 162.891C724.595 162.854 724.206 162.725 723.862 162.514C723.518 162.302 723.226 162.015 723.01 161.673C722.795 161.331 722.66 160.945 722.617 160.543C722.575 160.141 722.625 159.734 722.764 159.355L736.075 129.431C736.171 129.164 736.209 128.88 736.19 128.598C736.17 128.315 736.092 128.04 735.96 127.789C735.829 127.535 735.646 127.312 735.423 127.134C735.199 126.956 734.941 126.828 734.664 126.757C728.405 125.12 712.344 120.761 698.442 115.66C692.486 113.475 688.734 110.317 687.292 106.274C685.391 100.944 688.204 96.0825 688.324 95.8786L688.419 95.7188L701.501 96.9085L715.683 98.1155L746.762 114.79C749.366 116.2 751.344 118.538 752.302 121.341C753.26 124.144 753.128 127.205 751.931 129.915L737.603 162.064C737.396 162.529 737.058 162.925 736.631 163.202C736.204 163.48 735.705 163.628 735.196 163.628Z" fill="#2F2E41"/>
<path d="M703.775 37.7058C711.728 37.7058 718.174 31.2556 718.174 23.2989C718.174 15.3422 711.728 8.89197 703.775 8.89197C695.823 8.89197 689.376 15.3422 689.376 23.2989C689.376 31.2556 695.823 37.7058 703.775 37.7058Z" fill="#FFB8B8"/>
<path d="M722.75 173.043H729.937L733.357 154.392L722.749 154.392L722.75 173.043Z" fill="#FFB8B8"/>
<path d="M720.917 170.695L735.071 170.694H735.071C736.256 170.694 737.429 170.928 738.523 171.381C739.618 171.835 740.612 172.5 741.45 173.338C742.287 174.176 742.952 175.171 743.405 176.266C743.858 177.361 744.092 178.534 744.092 179.72V180.013L720.917 180.014L720.917 170.695Z" fill="#2F2E41"/>
<path d="M731.092 165.388C731.008 165.388 730.924 165.384 730.84 165.376L720.893 164.651C720.491 164.614 720.103 164.484 719.758 164.273C719.414 164.062 719.123 163.774 718.907 163.433C718.691 163.091 718.557 162.704 718.514 162.302C718.471 161.9 718.521 161.494 718.66 161.114L731.972 131.19C732.067 130.924 732.106 130.64 732.086 130.357C732.066 130.075 731.988 129.8 731.857 129.549C731.726 129.295 731.543 129.072 731.319 128.894C731.096 128.716 730.837 128.587 730.561 128.516C724.301 126.879 708.241 122.52 694.338 117.42C688.382 115.234 684.631 112.076 683.189 108.033C681.287 102.703 684.1 97.842 684.221 97.6381L684.315 97.4783L697.397 98.668L711.579 99.875L742.658 116.55C745.262 117.959 747.24 120.298 748.198 123.101C749.157 125.904 749.024 128.965 747.828 131.674L733.499 163.823C733.292 164.289 732.955 164.684 732.527 164.962C732.1 165.24 731.602 165.387 731.092 165.388Z" fill="#2F2E41"/>
<path d="M708.216 45.8751L692.974 40.5959C692.974 40.5959 683.405 47.9516 688.002 66.1991C690.402 75.6156 689.703 85.5553 686.008 94.5427C685.564 95.6546 685.051 96.7382 684.473 97.7871C684.473 97.7871 701.474 118.317 717.303 103.066L711.147 73.4442C711.147 73.4442 720.821 53.7939 708.216 45.8751Z" fill="#F9A826"/>
<path d="M705.563 38.1958C703.514 35.1267 701.896 30.8709 704.153 27.9507C706.38 25.0682 710.773 25.4929 714.184 24.2174C718.935 22.4408 721.69 16.8562 720.831 11.8549C719.971 6.85355 715.959 2.70758 711.179 1.01119C706.399 -0.68521 701.008 -0.133503 696.327 1.82C690.565 4.22479 685.622 8.87668 683.549 14.7694C681.476 20.6621 682.584 27.7375 686.884 32.2667C691.494 37.1226 698.73 38.4167 705.423 38.3382" fill="#2F2E41"/>
<path d="M692.169 12.0154C689.587 14.1188 685.647 13.1846 682.875 11.3386C680.103 9.49259 677.853 6.86402 674.854 5.41669C669.567 2.86512 663.174 4.56133 658.028 7.38765C652.882 10.214 648.32 14.1186 642.884 16.3366C637.449 18.5545 630.512 18.6641 626.396 14.4761C625.383 17.4124 625.301 20.5899 626.159 23.5751C627.018 26.5602 628.776 29.2076 631.194 31.156C633.612 33.1044 636.572 34.259 639.669 34.4622C642.767 34.6653 645.852 33.9073 648.504 32.2913C654.46 28.6614 657.75 21.0504 664.43 19.0468C668.126 17.9382 672.096 18.8311 675.832 19.7983C679.568 20.7654 683.463 21.8105 687.234 20.9871C691.004 20.1638 694.531 16.7737 694.051 12.9424L692.169 12.0154Z" fill="#2F2E41"/>
<path d="M773.734 73.4928C773.355 72.6532 772.797 71.9069 772.099 71.3066C771.4 70.7062 770.579 70.2663 769.692 70.0179C768.806 69.7695 767.875 69.7186 766.967 69.8689C766.059 70.0191 765.194 70.3668 764.435 70.8875L708.466 58.3188L707.77 72.0048L763.004 80.0559C763.963 81.2746 765.336 82.0991 766.861 82.3732C768.387 82.6472 769.96 82.3517 771.283 81.5428C772.605 80.7338 773.585 79.4675 774.037 77.9838C774.489 76.5002 774.381 74.9022 773.734 73.4928V73.4928Z" fill="#FFB8B8"/>
<path d="M718.279 59.5762L714.863 73.4309C714.766 73.8251 714.585 74.1937 714.333 74.5116C714.08 74.8295 713.762 75.0893 713.4 75.2732C713.039 75.4571 712.641 75.5608 712.236 75.5772C711.831 75.5937 711.426 75.5225 711.051 75.3686L697.894 69.9735C695.88 69.4656 694.149 68.1789 693.082 66.3959C692.015 64.6129 691.699 62.4792 692.202 60.4629C692.706 58.4466 693.988 56.7125 695.768 55.6411C697.547 54.5696 699.679 54.2484 701.695 54.7478L715.805 56.0867C716.209 56.1251 716.6 56.2502 716.951 56.4535C717.303 56.6568 717.606 56.9334 717.841 57.2645C718.076 57.5957 718.236 57.9736 718.312 58.3725C718.388 58.7714 718.376 59.1819 718.279 59.5761V59.5762Z" fill="#F9A826"/>
<path d="M767.269 84.3666C769.535 84.3666 771.372 82.5283 771.372 80.2606C771.372 77.9929 769.535 76.1545 767.269 76.1545C765.002 76.1545 763.165 77.9929 763.165 80.2606C763.165 82.5283 765.002 84.3666 767.269 84.3666Z" fill="#F9A826"/>
<path d="M949 213.413C949 213.569 948.938 213.718 948.828 213.828C948.718 213.937 948.569 213.999 948.414 214H463.586C463.431 214 463.282 213.938 463.172 213.828C463.062 213.718 463 213.569 463 213.413C463 213.258 463.062 213.108 463.172 212.998C463.282 212.888 463.431 212.827 463.586 212.827H948.414C948.569 212.827 948.718 212.889 948.828 212.999C948.938 213.109 949 213.258 949 213.413V213.413Z" fill="#3F3D56"/>
<g clip-path="url(#clip1)">
<path d="M657.5 96.4475C662.201 96.4475 666.012 92.5568 666.012 87.7574C666.012 82.9581 662.201 79.0674 657.5 79.0674C652.799 79.0674 648.989 82.9581 648.989 87.7574C648.989 92.5568 652.799 96.4475 657.5 96.4475Z" fill="#FEDB41"/>
<path d="M664.276 88.1277C664.176 88.1276 664.079 88.087 664.008 88.0149C663.937 87.9427 663.897 87.8449 663.897 87.7429C663.894 84.1553 661.031 81.2477 657.5 81.2442C657.399 81.2442 657.302 81.2035 657.231 81.1313C657.16 81.059 657.12 80.9609 657.12 80.8587C657.12 80.7564 657.16 80.6584 657.231 80.5861C657.302 80.5138 657.399 80.4731 657.5 80.4731C661.45 80.4774 664.652 83.7297 664.656 87.7429C664.656 87.7935 664.646 87.8436 664.627 87.8904C664.608 87.9372 664.58 87.9796 664.545 88.0154C664.509 88.0511 664.467 88.0794 664.421 88.0987C664.375 88.118 664.326 88.1279 664.276 88.1277V88.1277Z" fill="#FEA832"/>
<path d="M657.5 77.305C658.118 77.3058 658.735 77.3634 659.343 77.4772C659.352 77.3571 659.357 77.2348 659.357 77.1119C659.357 75.3934 657.5 74 657.5 74C657.5 74 655.643 75.3933 655.643 77.1118C655.643 77.2356 655.649 77.357 655.657 77.4771C656.265 77.3634 656.882 77.3058 657.5 77.305V77.305Z" fill="#FEA832"/>
<path d="M657.5 98.2099C658.118 98.2091 658.735 98.1516 659.343 98.0381C659.351 98.158 659.357 98.2793 659.357 98.4031C659.357 100.121 657.5 101.515 657.5 101.515C657.5 101.515 655.643 100.122 655.643 98.4031C655.643 98.2793 655.649 98.1579 655.657 98.0381C656.265 98.1516 656.882 98.2091 657.5 98.2099H657.5Z" fill="#FEA832"/>
<path d="M664.745 80.3535C665.182 80.7982 665.578 81.2821 665.929 81.7991C666.018 81.7203 666.107 81.6383 666.193 81.5509C667.389 80.3355 667.046 78.0167 667.046 78.0167C667.046 78.0167 664.763 77.6686 663.567 78.8833C663.48 78.9714 663.4 79.0595 663.322 79.1514C663.831 79.5078 664.308 79.9101 664.745 80.3535V80.3535Z" fill="#FEA832"/>
<path d="M650.254 95.1614C650.692 95.6049 651.168 96.0073 651.677 96.3636C651.6 96.4545 651.519 96.5442 651.433 96.6317C650.237 97.847 647.954 97.4983 647.954 97.4983C647.954 97.4983 647.611 95.1795 648.807 93.9641C648.894 93.876 648.981 93.7947 649.071 93.7158C649.422 94.2329 649.818 94.7168 650.254 95.1614V95.1614Z" fill="#FEA832"/>
<path d="M667.746 87.7584C667.746 88.3865 667.689 89.0132 667.577 89.6309C667.695 89.6393 667.815 89.645 667.937 89.645C669.628 89.645 671 87.7586 671 87.7586C671 87.7586 669.628 85.8723 667.937 85.8723C667.815 85.8723 667.695 85.8778 667.577 85.8862C667.689 86.5037 667.746 87.1303 667.746 87.7581V87.7584Z" fill="#FEA832"/>
<path d="M647.254 87.7582C647.254 88.3863 647.311 89.013 647.423 89.6307C647.305 89.639 647.184 89.6448 647.063 89.6448C645.372 89.644 644 87.7582 644 87.7582C644 87.7582 645.372 85.8721 647.063 85.8721C647.185 85.8721 647.305 85.8776 647.423 85.8859C647.311 86.5036 647.254 87.1302 647.254 87.7582L647.254 87.7582Z" fill="#FEA832"/>
<path d="M664.745 95.1614C664.308 95.6048 663.831 96.0072 663.322 96.3636C663.4 96.4546 663.481 96.5442 663.567 96.6317C664.763 97.847 667.046 97.4983 667.046 97.4983C667.046 97.4983 667.389 95.1795 666.193 93.9641C666.106 93.876 666.019 93.7947 665.929 93.7158C665.578 94.2329 665.182 94.7168 664.745 95.1614L664.745 95.1614Z" fill="#FEA832"/>
<path d="M650.255 80.3535C649.818 80.7982 649.422 81.2821 649.071 81.7991C648.982 81.7203 648.894 81.6383 648.808 81.5509C647.611 80.3355 647.954 78.0167 647.954 78.0167C647.954 78.0167 650.237 77.6686 651.434 78.8833C651.52 78.9714 651.6 79.0595 651.678 79.1514C651.169 79.5077 650.693 79.9101 650.255 80.3535V80.3535Z" fill="#FEA832"/>
<path d="M660.642 91.946L661.119 102H662.285L662.398 98.0907L661.807 91.946H660.642Z" fill="url(#paint0_radial)"/>
<path d="M666.627 102H662.285L661.808 91.946H667.105L666.627 102Z" fill="url(#paint1_radial)"/>
<path d="M661.728 94.3977C661.252 94.3977 660.987 94.2811 660.746 94.1514L661.075 101.074H662.241V98.0154L661.923 94.3905C661.862 94.3952 661.797 94.3977 661.728 94.3977Z" fill="url(#paint2_radial)"/>
<path d="M659.793 90.6038V89.7949H663.46V90.6038H659.793Z" fill="url(#paint3_radial)"/>
<path d="M663.46 89.8594V90.0476C663.46 90.1291 663.444 90.2098 663.414 90.2851C663.383 90.3604 663.338 90.4288 663.281 90.4865C663.224 90.5441 663.157 90.5898 663.083 90.621C663.009 90.6522 662.929 90.6682 662.849 90.6682L663.194 91.9748L663.657 92.0814L664.018 91.9748L663.46 89.8594Z" fill="url(#paint4_radial)"/>
<path d="M663.194 91.9246L664.25 95.928L665.019 95.7186L664.018 91.9246H663.194Z" fill="url(#paint5_radial)"/>
<path d="M666.018 94.3976C664.945 94.3976 664.945 93.8054 663.873 93.8054C662.87 93.8054 662.804 94.3233 661.923 94.3904L662.241 101.074H666.671L666.999 94.1512C666.758 94.281 666.494 94.3976 666.018 94.3976Z" fill="url(#paint6_radial)"/>
</g>
</g>
<path d="M486 213.5C486 213.632 485.938 213.759 485.828 213.853C485.718 213.947 485.569 214 485.414 214H0.586249C0.430766 214 0.281651 213.947 0.171708 213.854C0.0617648 213.76 0 213.633 0 213.5C0 213.367 0.0617648 213.24 0.171708 213.146C0.281651 213.053 0.430766 213 0.586249 213H485.414C485.569 213 485.718 213.053 485.828 213.147C485.938 213.241 486 213.368 486 213.5V213.5Z" fill="#3F3D56"/>
<path d="M81.7559 113.754V126H77.6309V94.7188H89.168C92.5911 94.7188 95.2695 95.5924 97.2031 97.3398C99.151 99.0872 100.125 101.4 100.125 104.279C100.125 107.316 99.1725 109.658 97.2676 111.305C95.377 112.938 92.6628 113.754 89.125 113.754H81.7559ZM81.7559 110.381H89.168C91.3737 110.381 93.0638 109.865 94.2383 108.834C95.4128 107.788 96 106.285 96 104.322C96 102.46 95.4128 100.971 94.2383 99.8535C93.0638 98.7363 91.4525 98.1562 89.4043 98.1133H81.7559V110.381ZM123.07 111.541H109.514V122.627H125.262V126H105.389V94.7188H125.047V98.1133H109.514V108.168H123.07V111.541ZM153.406 116.074C153.02 119.383 151.795 121.939 149.732 123.744C147.684 125.535 144.956 126.43 141.547 126.43C137.852 126.43 134.887 125.105 132.652 122.455C130.432 119.805 129.322 116.26 129.322 111.82V108.812C129.322 105.905 129.838 103.348 130.869 101.143C131.915 98.9368 133.39 97.2467 135.295 96.0723C137.2 94.8835 139.406 94.2891 141.912 94.2891C145.235 94.2891 147.899 95.2201 149.904 97.082C151.91 98.9297 153.077 101.493 153.406 104.773H149.26C148.902 102.281 148.121 100.477 146.918 99.3594C145.729 98.2422 144.061 97.6836 141.912 97.6836C139.277 97.6836 137.207 98.6576 135.703 100.605C134.214 102.553 133.469 105.325 133.469 108.92V111.949C133.469 115.344 134.178 118.044 135.596 120.049C137.014 122.054 138.997 123.057 141.547 123.057C143.839 123.057 145.593 122.541 146.811 121.51C148.042 120.464 148.859 118.652 149.26 116.074H153.406ZM142.9 126.193L142.643 127.311C144.834 127.697 145.93 128.936 145.93 131.027C145.93 132.417 145.357 133.512 144.211 134.314C143.065 135.131 141.468 135.539 139.42 135.539L139.27 133.24C140.401 133.24 141.275 133.054 141.891 132.682C142.521 132.309 142.836 131.786 142.836 131.113C142.836 130.483 142.607 130.018 142.148 129.717C141.69 129.416 140.759 129.201 139.355 129.072L140.043 126.193H142.9ZM176.33 117.836H163.225L160.281 126H156.027L167.973 94.7188H171.582L183.549 126H179.316L176.33 117.836ZM164.471 114.441H175.105L169.777 99.8105L164.471 114.441ZM202.799 113.754V126H198.674V94.7188H210.211C213.634 94.7188 216.312 95.5924 218.246 97.3398C220.194 99.0872 221.168 101.4 221.168 104.279C221.168 107.316 220.215 109.658 218.311 111.305C216.42 112.938 213.706 113.754 210.168 113.754H202.799ZM202.799 110.381H210.211C212.417 110.381 214.107 109.865 215.281 108.834C216.456 107.788 217.043 106.285 217.043 104.322C217.043 102.46 216.456 100.971 215.281 99.8535C214.107 98.7363 212.495 98.1562 210.447 98.1133H202.799V110.381ZM244.113 111.541H230.557V122.627H246.305V126H226.432V94.7188H246.09V98.1133H230.557V108.168H244.113V111.541ZM255.586 122.627H270.41V126H251.439V94.7188H255.586V122.627ZM297.76 111.369C297.76 114.434 297.244 117.113 296.213 119.404C295.182 121.682 293.721 123.422 291.83 124.625C289.939 125.828 287.734 126.43 285.213 126.43C282.749 126.43 280.565 125.828 278.66 124.625C276.755 123.408 275.273 121.682 274.213 119.447C273.167 117.199 272.63 114.599 272.602 111.648V109.393C272.602 106.385 273.124 103.728 274.17 101.422C275.215 99.1159 276.691 97.3542 278.596 96.1367C280.515 94.9049 282.706 94.2891 285.17 94.2891C287.676 94.2891 289.882 94.8978 291.787 96.1152C293.706 97.3184 295.182 99.0729 296.213 101.379C297.244 103.671 297.76 106.342 297.76 109.393V111.369ZM293.656 109.35C293.656 105.64 292.911 102.797 291.422 100.82C289.932 98.8294 287.848 97.834 285.17 97.834C282.563 97.834 280.508 98.8294 279.004 100.82C277.514 102.797 276.748 105.547 276.705 109.07V111.369C276.705 114.964 277.457 117.793 278.961 119.855C280.479 121.904 282.563 122.928 285.213 122.928C287.877 122.928 289.939 121.961 291.4 120.027C292.861 118.079 293.613 115.294 293.656 111.67V109.35ZM321.607 116.139L322.209 120.264L323.09 116.547L329.277 94.7188H332.758L338.795 116.547L339.654 120.328L340.32 116.117L345.176 94.7188H349.322L341.738 126H337.979L331.533 103.205L331.039 100.82L330.545 103.205L323.863 126H320.104L312.541 94.7188H316.666L321.607 116.139ZM377.961 126H373.814V111.541H358.045V126H353.92V94.7188H358.045V108.168H373.814V94.7188H377.961V126ZM402.947 117.836H389.842L386.898 126H382.645L394.59 94.7188H398.199L410.166 126H405.934L402.947 117.836ZM391.088 114.441H401.723L396.395 99.8105L391.088 114.441ZM433.197 98.1133H423.143V126H419.039V98.1133H409.006V94.7188H433.197V98.1133ZM446.711 112.057C443.173 111.04 440.595 109.794 438.977 108.318C437.372 106.829 436.57 104.995 436.57 102.818C436.57 100.355 437.551 98.321 439.514 96.7168C441.49 95.0983 444.054 94.2891 447.205 94.2891C449.354 94.2891 451.266 94.7044 452.941 95.5352C454.632 96.3659 455.935 97.5117 456.852 98.9727C457.783 100.434 458.248 102.031 458.248 103.764H454.102C454.102 101.873 453.5 100.391 452.297 99.3164C451.094 98.2279 449.396 97.6836 447.205 97.6836C445.171 97.6836 443.581 98.1348 442.436 99.0371C441.304 99.9251 440.738 101.164 440.738 102.754C440.738 104.029 441.275 105.11 442.35 105.998C443.438 106.872 445.279 107.674 447.871 108.404C450.478 109.135 452.512 109.944 453.973 110.832C455.448 111.706 456.536 112.73 457.238 113.904C457.954 115.079 458.312 116.461 458.312 118.051C458.312 120.586 457.324 122.62 455.348 124.152C453.371 125.671 450.729 126.43 447.42 126.43C445.271 126.43 443.266 126.021 441.404 125.205C439.542 124.374 438.103 123.243 437.086 121.811C436.083 120.378 435.582 118.753 435.582 116.934H439.729C439.729 118.824 440.423 120.321 441.812 121.424C443.216 122.512 445.085 123.057 447.42 123.057C449.597 123.057 451.266 122.613 452.426 121.725C453.586 120.837 454.166 119.626 454.166 118.094C454.166 116.561 453.629 115.38 452.555 114.549C451.48 113.704 449.533 112.873 446.711 112.057ZM480.893 117.836H467.787L464.844 126H460.59L472.535 94.7188H476.145L488.111 126H483.879L480.893 117.836ZM469.033 114.441H479.668L474.34 99.8105L469.033 114.441ZM496.447 113.754V126H492.322V94.7188H503.859C507.283 94.7188 509.961 95.5924 511.895 97.3398C513.842 99.0872 514.816 101.4 514.816 104.279C514.816 107.316 513.864 109.658 511.959 111.305C510.068 112.938 507.354 113.754 503.816 113.754H496.447ZM496.447 110.381H503.859C506.065 110.381 507.755 109.865 508.93 108.834C510.104 107.788 510.691 106.285 510.691 104.322C510.691 102.46 510.104 100.971 508.93 99.8535C507.755 98.7363 506.144 98.1562 504.096 98.1133H496.447V110.381ZM524.205 113.754V126H520.08V94.7188H531.617C535.04 94.7188 537.719 95.5924 539.652 97.3398C541.6 99.0872 542.574 101.4 542.574 104.279C542.574 107.316 541.622 109.658 539.717 111.305C537.826 112.938 535.112 113.754 531.574 113.754H524.205ZM524.205 110.381H531.617C533.823 110.381 535.513 109.865 536.688 108.834C537.862 107.788 538.449 106.285 538.449 104.322C538.449 102.46 537.862 100.971 536.688 99.8535C535.513 98.7363 533.902 98.1562 531.854 98.1133H524.205V110.381Z" fill="black"/>
<defs>
<radialGradient id="paint0_radial" cx="0" cy="0" r="1" gradientUnits="userSpaceOnUse" gradientTransform="translate(693.63 109.122) scale(3.25633 10.6444)">
<stop offset="0.057" stop-color="white"/>
<stop offset="0.283" stop-color="#F9FDFF"/>
<stop offset="0.57" stop-color="#EAF8FF"/>
<stop offset="0.65" stop-color="#E4F6FF"/>
<stop offset="0.741" stop-color="#DFF4FE"/>
<stop offset="0.854" stop-color="#CFEFFD"/>
<stop offset="0.98" stop-color="#B6E6FA"/>
<stop offset="1" stop-color="#B1E4F9"/>
</radialGradient>
<radialGradient id="paint1_radial" cx="0" cy="0" r="1" gradientUnits="userSpaceOnUse" gradientTransform="translate(664.041 96.9696) scale(6.70234 10.169)">
<stop offset="0.119" stop-color="white"/>
<stop offset="0.269" stop-color="#F9FDFE"/>
<stop offset="0.46" stop-color="#EAF7FD"/>
<stop offset="0.65" stop-color="#D3EFFB"/>
<stop offset="0.766" stop-color="#CEEDFB"/>
<stop offset="0.91" stop-color="#BEE8FA"/>
<stop offset="1" stop-color="#B1E4F9"/>
</radialGradient>
<radialGradient id="paint2_radial" cx="0" cy="0" r="1" gradientUnits="userSpaceOnUse" gradientTransform="translate(685.901 110.264) scale(3.25706 10.6482)">
<stop offset="0.013" stop-color="#FFFBE4"/>
<stop offset="0.606" stop-color="#F9EFAF"/>
<stop offset="0.697" stop-color="#F9EEAB"/>
<stop offset="0.79" stop-color="#F8EC9E"/>
<stop offset="0.885" stop-color="#F7E88A"/>
<stop offset="0.981" stop-color="#F6E36D"/>
<stop offset="1" stop-color="#F6E266"/>
</radialGradient>
<radialGradient id="paint3_radial" cx="0" cy="0" r="1" gradientUnits="userSpaceOnUse" gradientTransform="translate(656.623 94.6445) rotate(90) scale(5.66579 0.846584)">
<stop offset="0.007" stop-color="#90DFC3"/>
<stop offset="0.242" stop-color="#81CFB5"/>
<stop offset="0.558" stop-color="#66B49D"/>
<stop offset="0.736" stop-color="#5BA296"/>
<stop offset="1" stop-color="#478089"/>
</radialGradient>
<radialGradient id="paint4_radial" cx="0" cy="0" r="1" gradientUnits="userSpaceOnUse" gradientTransform="translate(676.393 98.1582) rotate(-8.28387) scale(1.93609 5.26315)">
<stop offset="0.007" stop-color="#90DFC3"/>
<stop offset="0.242" stop-color="#81CFB5"/>
<stop offset="0.558" stop-color="#66B49D"/>
<stop offset="0.736" stop-color="#5BA296"/>
<stop offset="1" stop-color="#478089"/>
</radialGradient>
<radialGradient id="paint5_radial" cx="0" cy="0" r="1" gradientUnits="userSpaceOnUse" gradientTransform="translate(678.782 101.53) rotate(-7.18841) scale(1.92638 6.64247)">
<stop offset="0.013" stop-color="#DDEFF1"/>
<stop offset="0.501" stop-color="#A7E7D0"/>
<stop offset="0.592" stop-color="#9EE3CA"/>
<stop offset="1" stop-color="#78D0B1"/>
</radialGradient>
<radialGradient id="paint6_radial" cx="0" cy="0" r="1" gradientUnits="userSpaceOnUse" gradientTransform="translate(662.134 97.1783) scale(6.70632 10.1748)">
<stop stop-color="#F6E266"/>
<stop offset="0.382" stop-color="#F2D53B"/>
<stop offset="0.448" stop-color="#F1D333"/>
<stop offset="0.869" stop-color="#E7A627"/>
<stop offset="0.986" stop-color="#E49824"/>
</radialGradient>
<clipPath id="clip0">
<rect width="486" height="214" fill="white" transform="translate(463)"/>
</clipPath>
<clipPath id="clip1">
<rect width="27" height="28" fill="white" transform="translate(644 74)"/>
</clipPath>
</defs>
</svg>
