<svg xmlns="http://www.w3.org/2000/svg" xmlns:xlink="http://www.w3.org/1999/xlink" width="892.288" height="910.938" viewBox="0 0 892.288 910.938">
  <defs>
    <radialGradient id="radial-gradient" cx="1.412" cy="0.353" r="0.329" gradientTransform="translate(-6.545 -0.783) scale(5.635 3.218)" gradientUnits="objectBoundingBox">
      <stop offset="0.057" stop-color="#fff"/>
      <stop offset="0.283" stop-color="#f9fdff"/>
      <stop offset="0.57" stop-color="#eaf8ff"/>
      <stop offset="0.65" stop-color="#e4f6ff"/>
      <stop offset="0.741" stop-color="#dff4fe"/>
      <stop offset="0.854" stop-color="#cfeffd"/>
      <stop offset="0.98" stop-color="#b6e6fa"/>
      <stop offset="1" stop-color="#b1e4f9"/>
    </radialGradient>
    <radialGradient id="radial-gradient-2" cx="-0.265" cy="0.249" r="0.677" gradientTransform="translate(0.23 -0.123) scale(1.869 1.494)" gradientUnits="objectBoundingBox">
      <stop offset="0.119" stop-color="#fff"/>
      <stop offset="0.269" stop-color="#f9fdfe"/>
      <stop offset="0.46" stop-color="#eaf7fd"/>
      <stop offset="0.65" stop-color="#d3effb"/>
      <stop offset="0.766" stop-color="#ceedfb"/>
      <stop offset="0.91" stop-color="#bee8fa"/>
      <stop offset="1" stop-color="#b1e4f9"/>
    </radialGradient>
    <radialGradient id="radial-gradient-3" cx="1.483" cy="0.194" r="0.478" gradientTransform="translate(-5.277 -0.43) scale(4.559 3.218)" gradientUnits="objectBoundingBox">
      <stop offset="0.013" stop-color="#fffbe4"/>
      <stop offset="0.606" stop-color="#f9efaf"/>
      <stop offset="0.697" stop-color="#f9eeab"/>
      <stop offset="0.79" stop-color="#f8ec9e"/>
      <stop offset="0.885" stop-color="#f7e88a"/>
      <stop offset="0.981" stop-color="#f6e36d"/>
      <stop offset="1" stop-color="#f6e266"/>
    </radialGradient>
    <radialGradient id="radial-gradient-4" cx="0.436" cy="0.249" r="1.521" gradientTransform="translate(2.27 2.492) rotate(90) scale(1 0.699)" gradientUnits="objectBoundingBox">
      <stop offset="0.007" stop-color="#90dfc3"/>
      <stop offset="0.242" stop-color="#81cfb5"/>
      <stop offset="0.558" stop-color="#66b49d"/>
      <stop offset="0.736" stop-color="#5ba296"/>
      <stop offset="1" stop-color="#478089"/>
    </radialGradient>
    <radialGradient id="radial-gradient-5" cx="1.354" cy="1.94" r="0.907" gradientTransform="matrix(1.807, -0.259, 1.235, 2.462, -3.199, -2.99)" xlink:href="#radial-gradient-4"/>
    <radialGradient id="radial-gradient-6" cx="-0.095" cy="0.484" r="0.502" gradientTransform="matrix(2.086, -0.259, 1.799, 3.108, -0.409, -1.215)" gradientUnits="objectBoundingBox">
      <stop offset="0.013" stop-color="#ddeff1"/>
      <stop offset="0.501" stop-color="#a7e7d0"/>
      <stop offset="0.592" stop-color="#9ee3ca"/>
      <stop offset="1" stop-color="#78d0b1"/>
    </radialGradient>
    <radialGradient id="radial-gradient-7" cx="-0.299" cy="0.088" r="0.937" gradientTransform="translate(0.123 -0.044) scale(1.41 1.494)" gradientUnits="objectBoundingBox">
      <stop offset="0" stop-color="#f6e266"/>
      <stop offset="0.382" stop-color="#f2d53b"/>
      <stop offset="0.448" stop-color="#f1d333"/>
      <stop offset="0.869" stop-color="#e7a627"/>
      <stop offset="0.986" stop-color="#e49824"/>
    </radialGradient>
    <radialGradient id="radial-gradient-8" cx="0.222" cy="0.947" r="0.753" gradientTransform="translate(-0.049 -0.219) scale(1.327 1.231)" gradientUnits="objectBoundingBox">
      <stop offset="0.007" stop-color="#a7e7d0"/>
      <stop offset="0.079" stop-color="#9be1c8"/>
      <stop offset="0.258" stop-color="#81d5b7"/>
      <stop offset="0.366" stop-color="#78d0b1"/>
      <stop offset="0.495" stop-color="#72c6ac"/>
      <stop offset="0.711" stop-color="#62ac9f"/>
      <stop offset="0.988" stop-color="#48828a"/>
      <stop offset="1" stop-color="#478089"/>
    </radialGradient>
    <radialGradient id="radial-gradient-9" cx="0.493" cy="0.022" r="7.832" gradientTransform="translate(0.698 24.628) scale(0.061 0.12)" gradientUnits="objectBoundingBox">
      <stop offset="0" stop-color="#0895d5"/>
      <stop offset="0.019" stop-color="#94d9f9"/>
      <stop offset="0.342" stop-color="#cdeefd"/>
      <stop offset="0.496" stop-color="#e4f6ff"/>
      <stop offset="0.888" stop-color="#fff"/>
      <stop offset="1" stop-color="#fff"/>
    </radialGradient>
  </defs>
  <g id="logo-sun" transform="translate(-766.85 1187.46)">
    <g id="LOGO" transform="translate(-42 -1467.588)">
      <g id="Group_5" data-name="Group 5" transform="translate(727.403 171.422)">
        <g id="Group_4" data-name="Group 4" transform="translate(98.447 76.705)">
          <g id="Group_3" data-name="Group 3" transform="translate(-17 32)">
            <g id="sun_1_" data-name="sun (1)" transform="translate(0 0)">
              <ellipse id="Ellipse_1" data-name="Ellipse 1" cx="281.282" cy="282.718" rx="281.282" ry="282.718" transform="translate(164.862 164.862)" fill="#fedb41"/>
              <g id="Group_2" data-name="Group 2">
                <path id="Path_1" data-name="Path 1" d="M298.738,280.031a12.535,12.535,0,0,1-12.521-12.521C286.1,150.792,191.51,56.2,74.792,56.084a12.542,12.542,0,0,1,0-25.084c130.564.138,236.372,105.946,236.51,236.51a12.535,12.535,0,0,1-12.564,12.521Z" transform="translate(371.352 179.592)" fill="#fea832"/>
                <g id="Group_1" data-name="Group 1">
                  <path id="Path_2" data-name="Path 2" d="M116.808,109.273a338.654,338.654,0,0,1,60.919,5.6c.272-3.906.452-7.884.452-11.883-.007-55.91-61.371-101.241-61.371-101.241S55.437,47.078,55.437,102.988c0,4.028.186,7.977.459,11.883A338.588,338.588,0,0,1,116.808,109.273Z" transform="translate(329.336 -1.747)" fill="#fea832"/>
                  <path id="Path_3" data-name="Path 3" d="M116.8,116.054a339.3,339.3,0,0,0,60.919-5.59c.272,3.9.452,7.848.452,11.876,0,55.9-61.364,101.241-61.364,101.241S55.438,178.256,55.438,122.34c0-4.028.186-7.977.459-11.876a339.251,339.251,0,0,0,60.9,5.59Z" transform="translate(329.342 671.58)" fill="#fea832"/>
                  <path id="Path_4" data-name="Path 4" d="M137.877,97.3a339.344,339.344,0,0,1,39.11,47.03c2.96-2.566,5.877-5.232,8.722-8.077,39.54-39.54,28.195-114.98,28.195-114.98S138.464,9.949,98.924,49.468c-2.867,2.867-5.511,5.734-8.077,8.722a339.351,339.351,0,0,1,47.03,39.11Z" transform="translate(547.708 109.402)" fill="#fea832"/>
                  <path id="Path_5" data-name="Path 5" d="M97.308,137.874a338.514,338.514,0,0,0,47.03,39.11c-2.566,2.96-5.232,5.877-8.077,8.722C96.72,225.246,21.281,213.9,21.281,213.9S9.936,138.461,49.476,98.921c2.867-2.867,5.734-5.511,8.722-8.077a338.935,338.935,0,0,0,39.11,47.03Z" transform="translate(109.394 550.584)" fill="#fea832"/>
                  <path id="Path_6" data-name="Path 6" d="M116.057,116.8a339.254,339.254,0,0,1-5.59,60.919c3.9.272,7.848.459,11.876.459,55.9,0,101.241-61.371,101.241-61.371S178.252,55.439,122.343,55.439c-4.028,0-7.977.179-11.876.452a339.3,339.3,0,0,1,5.59,60.9Z" transform="translate(668.704 330.806)" fill="#fea832"/>
                  <path id="Path_7" data-name="Path 7" d="M109.276,116.8a339.247,339.247,0,0,0,5.59,60.919c-3.9.272-7.884.459-11.876.459C47.081,178.151,1.75,116.8,1.75,116.8S47.081,55.438,102.991,55.438c4.028,0,7.977.179,11.876.451a339.306,339.306,0,0,0-5.59,60.912Z" transform="translate(-1.75 330.8)" fill="#fea832"/>
                  <path id="Path_8" data-name="Path 8" d="M137.877,137.874a339.356,339.356,0,0,1-47.03,39.11c2.566,2.96,5.232,5.877,8.077,8.722C138.464,225.246,213.9,213.9,213.9,213.9s11.345-75.439-28.195-114.98c-2.867-2.867-5.734-5.511-8.722-8.077a338.937,338.937,0,0,1-39.11,47.03Z" transform="translate(547.708 550.584)" fill="#fea832"/>
                  <path id="Path_9" data-name="Path 9" d="M97.308,97.3A339.35,339.35,0,0,0,58.2,144.33c-2.96-2.566-5.877-5.232-8.722-8.077C9.936,96.713,21.281,21.273,21.281,21.273S96.72,9.949,136.261,49.468c2.867,2.867,5.511,5.734,8.077,8.722A338.93,338.93,0,0,0,97.308,97.3Z" transform="translate(109.394 109.402)" fill="#fea832"/>
                </g>
              </g>
            </g>
          </g>
          <path id="Path_10" data-name="Path 10" d="M136.974,84.772l15.778,327.091h38.53l3.739-127.185L175.5,84.772Z" transform="translate(395.991 531.075)" fill="url(#radial-gradient)"/>
          <path id="Path_11" data-name="Path 11" d="M343.708,411.863h-143.5L184.434,84.772H359.487Z" transform="translate(387.062 531.075)" fill="url(#radial-gradient-2)"/>
          <path id="Path_12" data-name="Path 12" d="M173.674,181.158c-15.726,0-24.475-3.793-32.438-8.013L152.1,398.357h38.53v-99.5L180.143,180.925C178.123,181.077,175.973,181.158,173.674,181.158Z" transform="translate(395.189 514.448)" fill="url(#radial-gradient-3)"/>
          <path id="Path_13" data-name="Path 13" d="M102.443,26.315V0H223.632V26.315H102.443Z" transform="translate(402.488 545.863)" fill="url(#radial-gradient-4)"/>
          <path id="Path_14" data-name="Path 14" d="M247.039,0V6.123a20.191,20.191,0,0,1-20.192,20.192l11.39,42.509,15.307,3.467,11.935-3.467Z" transform="translate(379.082 547.96)" fill="url(#radial-gradient-5)"/>
          <path id="Path_15" data-name="Path 15" d="M240.877,84.772l34.9,130.245,25.417-6.811L268.12,84.772Z" transform="translate(376.442 530.377)" fill="url(#radial-gradient-6)"/>
          <path id="Path_16" data-name="Path 16" d="M324.472,178.55c-35.446,0-35.446-19.265-70.892-19.265-33.145,0-35.3,16.847-64.42,19.032l10.488,217.432h146.4l10.864-225.214C348.951,174.756,340.2,178.55,324.472,178.55Z" transform="translate(386.173 517.056)" fill="url(#radial-gradient-7)"/>
          <path id="Path_17" data-name="Path 17" d="M107.68,14.109Z" transform="translate(404.068 544.908)" fill="url(#radial-gradient-8)"/>
          <path id="Path_18" data-name="Path 18" d="M57.388,487.667Z" transform="translate(410.965 455.271)" stroke="rgba(112,112,112,0.71)" stroke-width="1" fill="url(#radial-gradient-9)"/>
        </g>
      </g>
    </g>
  </g>
</svg>
