<svg width="53" height="54" viewBox="0 0 53 54" fill="none" xmlns="http://www.w3.org/2000/svg">
<g clip-path="url(#clip0)">
<path d="M13.0127 53.9999C13.4898 54.0006 13.8843 53.6212 13.911 53.1359C13.923 52.9266 13.929 52.7056 13.929 52.4732C13.9612 50.9623 13.6241 49.4671 12.9481 48.1221C11.8606 45.8627 11.8606 43.2177 12.9481 40.9584C13.6223 39.6138 13.9576 38.1194 13.9236 36.61C13.9236 36.1045 13.5215 35.6947 13.0253 35.6947C12.5292 35.6947 12.127 36.1045 12.127 36.61C12.1613 37.855 11.8803 39.0881 11.3113 40.1904C10.0046 42.9359 10.0046 46.14 11.3113 48.8854C11.881 49.9902 12.1619 51.2258 12.127 52.4733C12.127 52.6698 12.1223 52.8565 12.1126 53.0334C12.099 53.2766 12.1808 53.5152 12.3404 53.6966C12.4999 53.878 12.7237 53.9872 12.9624 54H13.0127V53.9999Z" fill="#5E5F62"/>
<path d="M13.0253 11.5612C10.378 6.44394 5.08239 6.44394 2.43506 9.00305C-0.212263 11.5622 -0.213195 16.6793 2.43506 21.7974C4.28831 25.636 9.05379 29.471 13.0253 32.0337C16.9967 29.471 21.7623 25.636 23.6155 21.7974C26.2638 16.6793 26.2638 11.5612 23.6155 9.00305C20.9673 6.44489 15.6726 6.44394 13.0253 11.5612Z" fill="#804169"/>
<path d="M13.0254 32.0337L15.4509 35.1227C15.6668 35.3974 15.7089 35.7739 15.5592 36.0912C15.4096 36.4085 15.0947 36.6101 14.7492 36.61H11.3015C10.9561 36.6101 10.6412 36.4085 10.4915 36.0912C10.3418 35.7739 10.3841 35.3974 10.5999 35.1227L13.0254 32.0337Z" fill="#804169"/>
<path d="M9.05199 23.1447C9.34308 23.4376 9.65145 23.7326 9.97722 24.0298C10.2198 24.2469 10.3293 24.5801 10.2641 24.9023C10.1987 25.2245 9.96883 25.4863 9.6617 25.5879C9.35457 25.6894 9.01752 25.6153 8.77891 25.3935C8.431 25.0756 8.10161 24.7605 7.79075 24.4481C7.54086 24.2241 7.4331 23.8777 7.51053 23.5479C7.58796 23.2181 7.83805 22.959 8.1603 22.8745C8.48265 22.79 8.82436 22.894 9.04837 23.1447H9.05199Z" fill="#955BA5"/>
<path d="M4.29183 10.9955C4.95506 10.3848 5.82076 10.0532 6.71452 10.0675C7.21067 10.0675 7.61284 10.4772 7.61284 10.9827C7.61284 11.4882 7.21067 11.898 6.71452 11.898C6.28131 11.8878 5.85927 12.0391 5.52781 12.3236C4.7445 13.0805 4.48219 15.937 6.41443 19.6703L6.46029 19.7619C6.68781 20.2108 6.51536 20.7626 6.07489 20.9947C5.94798 21.0624 5.80679 21.0976 5.66342 21.0972C5.32709 21.098 5.01861 20.9072 4.86396 20.603L4.8208 20.5169C2.54903 16.1246 2.83473 12.4013 4.29183 10.9955Z" fill="#955BA5"/>
<path d="M39.987 53.9999C39.5099 54.0006 39.1154 53.6212 39.0887 53.1359C39.0767 52.9266 39.0707 52.7057 39.0707 52.4732C39.0385 50.9624 39.3757 49.4671 40.0516 48.1221C41.1392 45.8627 41.1392 43.2177 40.0516 40.9584C39.3774 39.6138 39.0421 38.1194 39.0761 36.61C39.0761 36.1045 39.4783 35.6947 39.9744 35.6947C40.4706 35.6947 40.8727 36.1045 40.8727 36.61C40.8385 37.855 41.1194 39.0881 41.6884 40.1904C42.9951 42.9359 42.9951 46.14 41.6884 48.8854C41.1188 49.9902 40.8378 51.2258 40.8727 52.4733C40.8727 52.6698 40.8775 52.8565 40.8871 53.0335C40.9008 53.2766 40.8189 53.5152 40.6594 53.6966C40.4999 53.8781 40.2761 53.9872 40.0373 54H39.987V53.9999Z" fill="#5E5F62"/>
<path d="M39.9746 11.5612C42.6219 6.44394 47.9175 6.44394 50.5648 9.00305C53.2122 11.5622 53.2131 16.6793 50.5648 21.7974C48.7116 25.636 43.9461 29.471 39.9746 32.0337C36.0032 29.471 31.2376 25.636 29.3844 21.7974C26.7361 16.6793 26.7361 11.5612 29.3844 9.00305C32.0326 6.44489 37.3273 6.44394 39.9746 11.5612Z" fill="#F0C419"/>
<path d="M39.9746 32.0337L37.5491 35.1227C37.3332 35.3974 37.2911 35.7739 37.4408 36.0912C37.5904 36.4085 37.9053 36.6101 38.2508 36.61H41.6985C42.0439 36.6101 42.3588 36.4085 42.5085 36.0912C42.6582 35.7739 42.6159 35.3974 42.4001 35.1227L39.9746 32.0337Z" fill="#F0C419"/>
<path d="M24.7032 54C24.207 54 23.8049 53.5902 23.8049 53.0847C23.7726 51.5742 24.1096 50.0791 24.7858 48.7345C25.8728 46.4738 25.8728 43.8279 24.7858 41.5671C24.1097 40.2224 23.7726 38.7275 23.8049 37.2169C23.7726 35.707 24.1097 34.2126 24.7858 32.8685C25.3548 31.7662 25.6357 30.5331 25.6015 29.2881C25.6015 28.7825 26.0036 28.3728 26.4998 28.3728C26.996 28.3728 27.3981 28.7825 27.3981 29.2881C27.4304 30.798 27.0933 32.2924 26.4172 33.6365C25.8482 34.7388 25.5672 35.9719 25.6015 37.2169C25.5673 38.4628 25.8482 39.6968 26.4172 40.8001C27.7251 43.5472 27.7251 46.7536 26.4172 49.5006C25.8482 50.6044 25.5673 51.8386 25.6015 53.0848C25.6015 53.3276 25.5069 53.5604 25.3383 53.732C25.1699 53.9036 24.9415 54 24.7032 54Z" fill="#5E5F62"/>
<path d="M26.5 4.23907C29.1473 -0.878202 34.4429 -0.878202 37.0902 1.68091C39.7376 4.24002 39.7385 9.35718 37.0902 14.4753C35.237 18.3138 30.4715 22.1488 26.5 24.7115C22.5286 22.1488 17.763 18.3138 15.9098 14.4753C13.2615 9.35718 13.2615 4.23907 15.9098 1.68091C18.558 -0.877253 23.8527 -0.878096 26.5 4.23907Z" fill="#FF5364"/>
<path d="M23.4501 16.7076C23.125 16.4111 22.8165 16.1161 22.5249 15.8225C22.3009 15.5718 21.9591 15.4678 21.6369 15.5523C21.3145 15.6368 21.0645 15.8959 20.9871 16.2257C20.9097 16.5556 21.0175 16.9019 21.2673 17.1259C21.5782 17.4383 21.9075 17.7535 22.2555 18.0714C22.6251 18.4088 23.1932 18.377 23.5244 18.0004C23.8555 17.6237 23.8244 17.045 23.4547 16.7075H23.4501V16.7076Z" fill="#FB7B76"/>
<path d="M20.1867 2.74537C19.2921 2.73028 18.4253 3.06167 17.7612 3.67255C16.3033 5.0793 16.0176 8.80258 18.2858 13.1913L18.3325 13.2828C18.4872 13.5871 18.7957 13.7778 19.132 13.777C19.2752 13.7774 19.4164 13.7422 19.5434 13.6745C19.9838 13.4424 20.1564 12.8906 19.9288 12.4417L19.8795 12.3437C17.9507 8.61674 18.2131 5.76021 18.9973 5.00241C19.3293 4.71701 19.7523 4.56524 20.1867 4.57589C20.6828 4.57589 21.085 4.16614 21.085 3.66063C21.085 3.15511 20.6827 2.74537 20.1867 2.74537Z" fill="#FB7B76"/>
<path d="M26.4998 24.7115L24.0743 27.8005C23.8583 28.0753 23.8162 28.4518 23.9659 28.7691C24.1156 29.0863 24.4305 29.288 24.7759 29.2879H28.2236C28.5691 29.288 28.884 29.0863 29.0336 28.7691C29.1833 28.4518 29.1411 28.0753 28.9253 27.8005L26.4998 24.7115Z" fill="#FF5364"/>
<path d="M43.9479 23.1447C43.6568 23.4376 43.3484 23.7326 43.0227 24.0298C42.7801 24.2469 42.6706 24.5801 42.7358 24.9023C42.801 25.2245 43.031 25.4863 43.3382 25.5879C43.6453 25.6894 43.9824 25.6153 44.221 25.3935C44.5689 25.0756 44.8983 24.7605 45.2091 24.4481C45.459 24.2241 45.5668 23.8777 45.4893 23.5479C45.4119 23.2181 45.1618 22.959 44.8396 22.8745C44.5172 22.79 44.1755 22.894 43.9515 23.1447H43.9479Z" fill="#F3D55B"/>
<path d="M48.708 10.9955C48.0447 10.3848 47.179 10.0532 46.2853 10.0675C45.7891 10.0675 45.387 10.4772 45.387 10.9827C45.387 11.4882 45.7891 11.898 46.2853 11.898C46.7185 11.8878 47.1405 12.0391 47.472 12.3236C48.2553 13.0805 48.5176 15.937 46.5854 19.6703L46.5395 19.7619C46.312 20.2108 46.4844 20.7626 46.9249 20.9947C47.0518 21.0624 47.193 21.0976 47.3364 21.0972C47.6727 21.098 47.9812 20.9072 48.1358 20.603L48.179 20.5169C50.4507 16.1246 50.1651 12.4013 48.708 10.9955Z" fill="#F3D55B"/>
</g>
<defs>
<clipPath id="clip0">
<rect width="53" height="54" fill="white"/>
</clipPath>
</defs>
</svg>
