<svg width="53" height="54" viewBox="0 0 53 54" fill="none" xmlns="http://www.w3.org/2000/svg">
<g clip-path="url(#clip0)">
<path d="M37.9729 11.016L36.9583 9.46672C38.4173 8.47886 39.2936 6.81227 39.2932 5.02748V2.79309H41.1207V5.02748C41.1216 7.43462 39.9397 9.68265 37.9729 11.016Z" fill="#E3584B"/>
<path d="M48.431 46.5517H38.3793C36.3607 46.5517 34.7241 44.8842 34.7241 42.8275V32.5862L42.0345 20.4827L44.7758 11.1724H50.2586L52.0862 21.4137V42.8275C52.0862 44.8842 50.4496 46.5517 48.431 46.5517Z" fill="#4398D1"/>
<path d="M53 7.44828H42.0345C41.4763 5.17388 39.6822 3.43092 37.4263 2.97085L36.5518 2.7931V0H45.6897C49.7272 0 53 3.33454 53 7.44828Z" fill="#D6D9DB"/>
<path d="M44.7759 7.44836H50.2586V11.1725H44.7759V7.44836Z" fill="#E3584B"/>
<path d="M34.7241 40.6032V42.8276C34.7241 44.8843 36.3607 46.5518 38.3793 46.5518H48.431C50.4496 46.5518 52.0862 44.8843 52.0862 42.8276V21.4138L52.034 21.1224C47.3365 28.5275 41.4906 35.1066 34.7241 40.6032Z" fill="#3E8DC2"/>
<path d="M16.4483 46.5517H3.65517C1.63662 46.5517 1.04905e-06 44.8842 1.04905e-06 42.8276V29.4962C-0.000445139 28.457 0.141443 27.4228 0.422095 26.4235L1.82759 21.4138L0.223095 16.509C0.0749606 16.0576 1.04905e-06 15.5848 1.04905e-06 15.1088C-0.000445139 13.7945 0.572907 12.5476 1.56434 11.707L5.48276 8.37927H14.6207L18.5391 11.707C19.5305 12.5476 20.1039 13.7945 20.1035 15.1088C20.103 15.5834 20.028 16.0549 19.8804 16.5054L18.2759 21.4138L19.6814 26.4263C19.962 27.4255 20.1039 28.4597 20.1035 29.4989V42.8276C20.1035 44.8842 18.4668 46.5517 16.4483 46.5517Z" fill="#FFC24F"/>
<path d="M18.2759 21.4138L19.8804 16.509C20.4461 14.7797 19.9138 12.8736 18.5391 11.707L17.1408 10.5205C13.9938 25.958 6.34256 34.7015 0 39.4758V42.8276C0 44.8842 1.63662 46.5517 3.65517 46.5517H16.4483C18.4668 46.5517 20.1034 44.8842 20.1034 42.8276V29.4962C20.1039 28.457 19.962 27.4228 19.6814 26.4236L18.2759 21.4138Z" fill="#FFB64F"/>
<path d="M14.6207 8.37929H5.48279V5.58619L7.31037 3.72412H12.7931L14.6207 5.58619V8.37929Z" fill="#4398D1"/>
<path d="M7.3103 0H12.7931V3.72414H7.3103V0Z" fill="#4398D1"/>
<path d="M14.6207 14.8966C14.6207 13.3541 12.5749 12.1035 10.0518 12.1035C7.52856 12.1035 5.48279 13.3541 5.48279 14.8966C5.48279 16.4391 7.52856 17.6897 10.0518 17.6897C12.5749 17.6897 14.6207 16.4391 14.6207 14.8966Z" fill="#FF7230"/>
<path d="M12.7931 41.8966H7.31032C5.29177 41.8966 3.65515 40.2291 3.65515 38.1724V27L14.0223 30.7723C15.4769 31.3019 16.4483 32.7058 16.4483 34.2796V38.1724C16.4483 40.2291 14.8116 41.8966 12.7931 41.8966Z" fill="#FF7230"/>
<path d="M7.31032 41.8965H12.7931C14.8116 41.8965 16.4483 40.2291 16.4483 38.1724V34.2796C16.4483 32.7058 15.4769 31.3019 14.0223 30.7723L9.6421 29.1785C7.91268 31.7906 5.90483 34.2001 3.65515 36.3626V38.1724C3.65515 40.2291 5.29177 41.8965 7.31032 41.8965Z" fill="#FC641C"/>
<path d="M22.8448 5.5863H30.1552C30.6598 5.5863 31.069 6.00318 31.069 6.51734V11.1725H21.931V6.51734C21.931 6.00318 22.3402 5.5863 22.8448 5.5863Z" fill="#4398D1"/>
<path d="M36.9256 18.1215L32.8965 14.8965V11.1724H20.1034V14.8965L18.664 16.6067C9.78755 27.1582 8.88224 42.437 16.4482 54H38.3793L40.6638 51.0896C44.4836 46.2225 46.2375 40.0026 45.5352 33.8118C44.8334 27.6209 41.7333 21.9725 36.9247 18.1215H36.9256ZM40.1582 42.5334C39.8347 43.4626 38.8469 43.9641 37.9242 43.6667C37.001 43.3694 36.475 42.3811 36.7346 41.431C37.9657 37.0381 37.0916 32.3107 34.3752 28.6756L33.9045 28.0465C33.2593 27.1454 33.436 25.8848 34.3025 25.2033C35.1694 24.5219 36.4111 24.6683 37.1027 25.5325L37.4682 26.0094C41.0734 30.6886 42.0876 36.9186 40.1582 42.5334Z" fill="#FF7230"/>
<path d="M22.8448 13.9656H32.8966V15.8276H22.8448V13.9656Z" fill="#DE5718"/>
<path d="M41.3536 22.8263C40.6625 24.6825 39.8491 26.4891 38.9192 28.2338C41.3295 32.5976 41.7811 37.807 40.1583 42.5335C39.8348 43.4627 38.847 43.9641 37.9242 43.6668C37.0011 43.3695 36.475 42.3812 36.7347 41.4311C37.557 38.4661 37.429 35.3107 36.3688 32.4253C29.8308 41.948 20.7009 47.4687 14.4253 50.3664C15.0187 51.6225 15.6947 52.8367 16.4483 54H38.3793L40.6638 51.0897C47.0988 42.8958 47.3803 31.3356 41.3527 22.8263H41.3536Z" fill="#FA6823"/>
<path d="M26.0038 27.0446C25.7151 27.0186 25.4247 27 25.1293 27C20.546 26.9982 16.6017 30.2995 15.7129 34.8811C14.8246 39.4621 17.2402 44.0436 21.4799 45.8184C25.7191 47.5928 30.5987 46.0648 33.1277 42.1702C31.8556 34.4669 28.8706 29.8208 26.0038 27.0446Z" fill="#FFA217"/>
<path d="M44.7759 7.44836H50.2586V9.31043H44.7759V7.44836Z" fill="#CF4E42"/>
</g>
<defs>
<clipPath id="clip0">
<rect width="53" height="54" fill="white"/>
</clipPath>
</defs>
</svg>
