<svg width="53" height="54" viewBox="0 0 53 54" fill="none" xmlns="http://www.w3.org/2000/svg">
<path d="M4.2124 39.1035L5.4827 54.0001H15.5344V39.1035H4.2124Z" fill="#D5690D"/>
<path d="M15.5345 54.0001H25.5863L26.8566 39.1035H15.5345V54.0001Z" fill="#DB741C"/>
<path d="M15.5345 11.1724H1.82764L2.77802 22.3448H15.5345V11.1724Z" fill="#D5690D"/>
<path d="M15.5345 11.1724V22.3448H28.2911L29.2414 11.1724H15.5345Z" fill="#DB741C"/>
<path d="M15.5345 11.1724H31.069V7.44824H15.5345V11.1724Z" fill="#BA9673"/>
<path d="M15.5345 7.44824H0V11.1724H15.5345V7.44824Z" fill="#A97C50"/>
<path d="M30.1552 7.44828L28.3276 0H15.5345V7.44828H30.1552Z" fill="#DB741C"/>
<path d="M15.5345 0H2.7414L0.913818 7.44828H15.5345V0Z" fill="#D5690D"/>
<path d="M15.5345 26.069C18.0577 26.069 20.1035 28.1534 20.1035 30.7242C20.1035 33.295 18.0577 35.3793 15.5345 35.3793V39.1035H28.3276L30.1552 22.3448H15.5345V26.069Z" fill="#EDE5C6"/>
<path d="M15.5345 35.3793C13.0113 35.3793 10.9655 33.295 10.9655 30.7242C10.9655 28.1534 13.0113 26.069 15.5345 26.069V22.3448H0.913818L2.7414 39.1035H15.5345V35.3793Z" fill="#EFD5A3"/>
<path d="M10.9656 30.7241C10.9656 33.2949 13.0113 35.3793 15.5345 35.3793V26.069C13.0113 26.069 10.9656 28.1533 10.9656 30.7241Z" fill="#FFAF46"/>
<path d="M20.1035 30.7241C20.1035 28.1533 18.0577 26.069 15.5345 26.069V35.3793C18.0577 35.3793 20.1035 33.2949 20.1035 30.7241Z" fill="#FFBF6B"/>
</svg>
